<svg xmlns="http://www.w3.org/2000/svg" width="499" height="234" viewBox="0 0 499 234" fill="none">
  <path d="M179.81 147.402L139.561 125.188L165.191 121.528L205.421 143.741L179.81 147.402Z" fill="url(#paint0_linear_5261_69078)"/>
  <path d="M139.486 233.647L99.5745 211.858L99.6498 167.787L139.561 189.558L139.486 233.647Z" fill="url(#paint1_linear_5261_69078)"/>
  <path d="M140.23 152.89L99.5745 131.123L106.209 80.5273L140.345 89.1948L140.23 152.89Z" fill="url(#paint2_linear_5261_69078)"/>
  <path d="M89.6907 159.947L65.7278 140.161L100.05 130.937L140.345 152.827L89.6907 159.947Z" fill="url(#paint3_linear_5261_69078)"/>
  <path d="M145.156 26.6577L105.063 4.91708L140.239 0L180.332 21.7218L145.156 26.6577Z" fill="url(#paint4_linear_5261_69078)" fill-opacity="0.6"/>
  <path d="M40.2651 171.707L0 149.854L104.784 4.70459L145.049 26.5774L40.2651 171.707Z" fill="url(#paint5_linear_5261_69078)" fill-opacity="0.6"/>
  <path d="M47.0431 202.285L6.84777 180.545L0 149.754L40.2142 171.494L47.0431 202.285Z" fill="url(#paint6_linear_5261_69078)" fill-opacity="0.6"/>
  <path d="M180.143 21.1694L179.916 147.063L205.421 143.458V180.11L179.916 183.715V227.956L140.147 233.647V189.406L47.5721 202.459L40.7706 171.479L145.059 26.1399L180.143 21.1694ZM140.147 152.602L140.26 88.5932L89.7975 159.716L140.147 152.602Z" fill="url(#paint7_linear_5261_69078)"/>
  <path d="M180.088 21.5261L179.861 147.17L205.421 143.573V180.153L179.861 183.75V227.904L140.005 233.584V189.43L47.23 202.457L40.4138 171.538L144.928 26.4868L180.088 21.5261ZM140.005 152.699L140.119 88.8166L89.5469 159.799L140.005 152.699Z" fill="url(#paint8_linear_5261_69078)" fill-opacity="0.9"/>
  <path fill-rule="evenodd" clip-rule="evenodd" d="M301.88 66.912C306.535 69.6515 310.486 73.4887 313.406 78.1057C320.824 89.189 324.527 103.932 324.515 122.335V122.88C324.515 124.963 324.458 127.027 324.363 128.974C324.268 129.538 324.268 130.103 324.268 130.648C324.173 132.225 324.04 133.782 323.888 135.301L323.774 136.644C323.565 138.532 323.299 140.401 322.996 142.231C322.974 142.378 322.939 142.525 322.904 142.673C322.846 142.917 322.787 143.164 322.787 143.418C322.546 144.872 322.261 146.313 321.932 147.74L321.59 149.239C321.192 150.894 320.774 152.529 320.299 154.106C320.204 154.203 320.204 154.32 320.204 154.417C319.786 155.78 319.35 157.143 318.875 158.467L318.59 159.187C318.554 159.282 318.518 159.376 318.483 159.47C318.221 160.159 317.975 160.808 317.641 161.562C317.439 162.016 317.217 162.558 317.001 163.083C316.81 163.548 316.624 163.999 316.463 164.365C316.2 164.965 315.858 165.657 315.584 166.211C315.503 166.376 315.427 166.528 315.362 166.662C315.248 166.896 315.14 167.13 315.032 167.363C314.871 167.714 314.709 168.064 314.527 168.414C314.223 168.998 314.071 169.29 313.596 170.128C313.121 170.965 312.647 171.763 312.172 172.561L312.172 172.561L311.678 173.301C311.355 173.826 311.033 174.332 310.691 174.839V174.955L310.292 175.5C310.07 175.82 309.776 176.219 309.532 176.55C309.36 176.784 309.212 176.984 309.134 177.097C309.108 177.134 309.084 177.168 309.062 177.2C308.923 177.402 308.837 177.525 308.526 177.895C308.379 178.07 308.235 178.247 308.092 178.424C307.884 178.682 307.677 178.938 307.463 179.18L307.197 179.53L306.722 180.036C306.618 180.15 306.516 180.263 306.415 180.375C306.221 180.592 306.03 180.805 305.83 181.01C305.564 181.308 305.298 181.581 305.032 181.827L304.121 182.742L303.722 183.112L303.304 183.482L302.317 184.339L301.481 185.02L300.456 185.799L299.924 186.207L299.658 186.383L297.76 187.609L297.437 187.804C296.696 188.232 295.937 188.641 295.177 189.011L294.987 189.128L294.436 189.361L292.974 190.004L292.12 190.315C291.645 190.51 291.151 190.666 290.658 190.821L289.803 191.094L288.208 191.522L287.43 191.697C286.651 191.872 285.911 192.009 285.018 192.145C284.126 192.281 283.138 192.418 282.227 192.418H281.372H279.473H278.581C278.327 192.401 278.067 192.365 277.803 192.328C277.751 192.32 277.699 192.313 277.647 192.306C265.59 189.05 255.077 180.691 247.666 169.153L247.914 169.096L249.509 168.667L250.383 168.395C250.44 168.376 250.498 168.357 250.556 168.338C250.977 168.201 251.409 168.06 251.826 167.889L252.68 167.577L254.142 166.935L254.883 166.584C255.643 166.215 256.402 165.806 257.143 165.378L257.465 165.183C258.124 164.793 258.757 164.385 259.364 163.956L260.162 163.372L261.206 162.594L262.023 161.912L263.029 161.056L263.827 160.316L264.757 159.401L265.536 158.583C265.839 158.272 266.143 157.941 266.428 157.61L267.169 156.754C267.529 156.345 267.89 155.897 268.232 155.449L268.859 154.671L269.998 153.074C270.054 152.995 270.087 152.95 270.124 152.901C270.185 152.817 270.258 152.718 270.473 152.412C270.688 152.105 270.957 151.674 271.168 151.335C271.292 151.136 271.397 150.968 271.46 150.874C271.51 150.8 271.56 150.728 271.61 150.656C271.73 150.483 271.846 150.313 271.954 150.135C272.448 149.336 272.751 148.83 273.378 147.701C273.936 146.695 274.449 145.658 274.971 144.604C275.035 144.475 275.099 144.346 275.163 144.217C275.317 143.892 275.468 143.586 275.621 143.275C275.826 142.857 276.036 142.43 276.264 141.939C276.534 141.359 276.822 140.635 277.08 139.987C277.203 139.678 277.318 139.387 277.423 139.136C277.474 139.011 277.527 138.885 277.579 138.76C277.854 138.101 278.133 137.431 278.372 136.761C278.961 135.184 279.511 133.607 280.005 131.991V131.68C280.48 130.083 280.898 128.468 281.296 126.813C281.388 126.477 281.461 126.133 281.536 125.785C281.569 125.628 281.603 125.471 281.638 125.314C281.961 123.893 282.246 122.452 282.512 120.992C282.534 120.83 282.572 120.671 282.609 120.515C282.665 120.275 282.72 120.04 282.72 119.805C283.024 117.975 283.271 116.164 283.48 114.218C283.613 113.77 283.613 113.322 283.613 112.874C283.765 111.356 283.879 109.798 283.974 108.222C284.069 107.676 284.069 107.112 284.069 106.547C284.24 104.542 284.24 102.537 284.24 100.454V100.454V99.9285C284.267 86.4949 282.313 75.0169 278.378 65.4947C281.799 64.496 285.333 63.867 288.943 63.6414C292.653 63.974 296.251 64.6692 299.706 65.6999L301.88 66.912Z" fill="url(#paint9_linear_5261_69078)"/>
  <path d="M204.456 131.523C204.551 129.962 204.626 128.42 204.758 126.878C204.758 125.98 204.947 125.102 205.042 124.224C205.174 122.838 205.325 121.472 205.495 120.106C205.608 119.189 205.76 118.272 205.892 117.354C206.081 116.047 206.288 114.759 206.515 113.451C206.685 112.534 206.855 111.597 207.044 110.68C207.29 109.431 207.554 108.182 207.819 106.933C208.026 106.016 208.234 105.118 208.461 104.22C208.763 102.971 209.103 101.742 209.424 100.512L210.161 97.897C210.539 96.648 210.936 95.3989 211.351 94.1694C211.616 93.3498 211.88 92.5301 212.164 91.7104C212.825 89.7588 213.524 87.8072 214.279 86.0117C215.035 84.2162 215.961 81.9719 216.849 80.0398C217.151 79.3763 217.472 78.7713 217.774 78.0882C218.398 76.8197 219.021 75.5316 219.663 74.2826C220.306 73.0336 220.835 72.1554 221.439 71.1015C222.044 70.0476 222.365 69.4036 222.875 68.5839C223.385 67.7642 224.178 66.4957 224.764 65.4809C225.35 64.466 225.746 63.9001 226.275 63.139C226.804 62.3779 227.069 62.0461 227.465 61.4801C228.24 60.3872 229.033 59.2943 229.846 58.2209L231.357 56.2693C232.113 55.3326 232.868 54.3177 233.662 53.4786C234.455 52.6394 234.833 52.1905 235.419 51.527C236.004 50.8634 236.949 49.8486 237.742 49.0289C238.536 48.2092 239.008 47.7604 239.631 47.0773C240.67 46.082 241.69 45.1257 242.767 44.1109C244.165 42.8619 245.601 41.6714 247.055 40.5394L248.416 39.5051C249.568 38.6269 250.739 37.7682 251.91 36.968L252.59 36.4996C254.026 35.5628 255.481 34.6651 256.954 33.8064L257.786 33.338C259.24 32.5184 260.695 31.7572 262.187 31.0352C263.207 30.5473 264.246 30.1179 265.285 29.669C266.324 29.2201 266.815 28.986 267.609 28.6737C268.705 28.2639 269.838 27.8931 270.953 27.5223C271.689 27.2686 272.445 26.9758 273.201 26.7416C274.447 26.3708 275.732 26.0586 276.979 25.7268C277.621 25.5707 278.263 25.3755 278.868 25.2389C280.757 24.8095 282.778 24.4387 284.781 24.146C286.443 23.9118 288.087 23.7362 289.711 23.5996H290.826C292.413 23.502 294 23.4239 295.549 23.4239H296.172C297.595 23.4239 298.993 23.4825 300.366 23.5996H301.329C302.822 23.7167 304.314 23.9118 305.769 24.146L306.619 24.3021C307.941 24.5363 309.226 24.8096 310.511 25.1218L311.228 25.2974C312.645 25.6682 314.043 26.0976 315.403 26.566L316.253 26.8587C317.632 27.3661 318.993 27.8931 320.334 28.4981L320.825 28.7323C322.242 29.3958 323.64 30.0789 325 30.8595L284.951 8.33804C284.233 7.94772 283.515 7.5574 282.778 7.1866L280.795 6.23033L280.304 5.99609C278.962 5.3911 277.583 4.86417 276.204 4.35675L275.373 4.06403C274.107 3.63467 272.842 3.22487 271.595 2.87358H271.217C270.99 2.87358 270.745 2.75649 270.499 2.69794C269.234 2.38569 267.93 2.11244 266.627 1.87824L265.758 1.72214C264.303 1.48795 262.829 1.29279 261.318 1.1757H260.355C258.976 1.07812 257.578 1.01952 256.18 1H255.556C253.988 1 252.42 1.00005 250.834 1.1757H249.719C248.094 1.31231 246.451 1.48795 244.789 1.72214C242.786 2.01488 240.802 2.38568 238.857 2.81503C238.214 2.95165 237.591 3.14681 236.968 3.30293C235.683 3.63471 234.398 3.94694 233.189 4.31774C232.434 4.55194 231.697 4.8447 230.96 5.0789C229.827 5.46922 228.712 5.82046 227.598 6.24981L225.274 7.24514C224.235 7.69401 223.196 8.12339 222.176 8.61129L221.817 8.76739C220.457 9.43093 219.116 10.153 217.793 10.9142L216.943 11.3825C215.47 12.2282 214.015 13.126 212.579 14.0757L211.899 14.5441C211.351 14.9149 210.803 15.2858 210.274 15.6761C209.746 16.0664 209.028 16.6128 208.385 17.0812C207.743 17.5496 207.479 17.7448 207.025 18.1156C205.59 19.2475 204.154 20.4379 202.737 21.687L201.226 23.0531L199.601 24.6534C198.978 25.278 198.316 25.9025 197.712 26.605C197.107 27.3076 196.163 28.2444 195.388 29.0836C194.614 29.9227 194.198 30.3716 193.631 31.0352L193.178 31.5426C192.536 32.2842 191.95 33.0648 191.289 33.8259C190.628 34.5871 190.269 35.0554 189.778 35.7775C188.965 36.8314 188.191 37.9243 187.416 39.0172L186.207 40.6956C186.168 40.7638 186.124 40.829 186.075 40.8907C185.603 41.5738 185.168 42.3154 184.715 42.9985C184.054 44.0523 183.374 45.0671 182.731 46.1405C182.089 47.2139 181.787 47.8189 181.315 48.6581C180.842 49.4973 180.105 50.7658 179.52 51.8392C179.464 51.9603 179.401 52.0777 179.331 52.1905C178.745 53.3029 178.216 54.4739 177.65 55.6253C177.347 56.2694 177.026 56.8939 176.724 57.5769C175.817 59.5285 174.967 61.4801 174.155 63.5488C173.494 65.1882 172.87 66.8275 172.266 68.5059C172.266 68.7596 172.115 68.9938 172.02 69.2475C171.737 70.0671 171.491 70.8868 171.208 71.7065C170.811 72.936 170.414 74.185 170.037 75.4341C169.772 76.2928 169.545 77.171 169.3 78.0492C168.96 79.2787 168.639 80.5082 168.317 81.7572L167.694 84.47C167.404 85.771 167.14 87.02 166.901 88.217C166.712 89.1343 166.542 90.0711 166.372 90.9883C166.145 92.2764 165.956 93.5644 165.748 94.8915L165.352 97.6433C165.182 99.0094 165.03 100.375 164.898 101.761C164.804 102.639 164.709 103.518 164.634 104.415C164.501 105.957 164.407 107.499 164.313 109.06C164.313 109.821 164.218 110.563 164.18 111.324C164.086 113.646 164.029 116.008 164.01 118.389C163.841 131.957 165.754 145.467 169.678 158.416C172.971 169.631 178.398 180.055 185.641 189.076C190.441 194.943 196.258 199.834 202.794 203.498L242.824 226C236.294 222.335 230.483 217.444 225.69 211.578C218.504 202.549 213.129 192.133 209.878 180.938C205.954 167.988 204.042 154.478 204.21 140.91C204.21 138.529 204.21 136.187 204.38 133.845C204.343 133.026 204.418 132.284 204.456 131.523Z" fill="url(#paint10_linear_5261_69078)" fill-opacity="0.9"/>
  <path d="M355.381 65.0521C361.98 79.7603 365.28 96.8288 365.28 116.258C365.439 135.047 361.998 153.685 355.153 171.111C348.95 187.186 339.094 201.505 326.406 212.875C314.482 223.652 299.734 230.592 283.998 232.831C272.883 234.614 261.508 233.473 250.939 229.515C241.063 225.791 232.297 219.5 225.498 211.256C218.243 202.276 212.799 191.906 209.481 180.747C205.535 167.804 203.611 154.3 203.781 140.739C203.618 121.963 207.079 103.339 213.965 85.9439C220.187 69.9002 230.018 55.5957 242.655 44.1992C254.548 33.4206 269.272 26.4796 284.986 24.2436C300.718 21.9808 314.734 24.5298 327.033 31.8904C339.636 39.6189 349.552 51.2198 355.381 65.0521ZM324.259 123.28V122.734C324.259 104.267 320.567 89.4812 313.182 78.3753C305.798 67.2693 296.171 62.5617 284.302 64.2523C272.421 65.9689 262.871 73.3035 255.651 86.2561C248.431 99.2086 244.783 115.009 244.707 133.658V134.204C244.707 152.853 248.38 167.691 255.727 178.719C263.073 189.747 272.725 194.402 284.682 192.686C296.526 190.969 306.076 183.615 313.334 170.623C320.592 157.632 324.234 141.851 324.259 123.28Z" fill="url(#paint11_linear_5261_69078)" fill-opacity="0.9"/>
  <path d="M472.871 147.905L432.622 125.692L458.252 122.031L498.482 144.244L472.871 147.905Z" fill="url(#paint12_linear_5261_69078)"/>
  <path d="M431.486 233.647L391.574 211.857L391.65 167.787L431.561 189.558L431.486 233.647Z" fill="url(#paint13_linear_5261_69078)"/>
  <path d="M432.23 152.89L391.574 131.123L399.483 80.8708L432.345 89.1948L432.23 152.89Z" fill="url(#paint14_linear_5261_69078)"/>
  <path d="M381.691 159.946L358.44 140.714L392.05 130.936L432.345 152.827L381.691 159.946Z" fill="url(#paint15_linear_5261_69078)"/>
  <path d="M437.156 26.6577L397.063 4.91708L432.239 0L472.332 21.7218L437.156 26.6577Z" fill="url(#paint16_linear_5261_69078)" fill-opacity="0.6"/>
  <path d="M332.265 171.707L292 149.853L396.784 4.70386L437.049 26.5767L332.265 171.707Z" fill="url(#paint17_linear_5261_69078)" fill-opacity="0.6"/>
  <path d="M339.043 202.285L298.848 180.544L292 149.753L332.214 171.494L339.043 202.285Z" fill="url(#paint18_linear_5261_69078)"/>
  <path d="M472.143 21.1692L471.916 147.062L497.421 143.458V180.11L471.916 183.715V227.956L432.147 233.647V189.406L339.572 202.458L332.771 171.478L437.059 26.1397L472.143 21.1692ZM432.147 152.602L432.26 88.5929L381.797 159.716L432.147 152.602Z" fill="url(#paint19_linear_5261_69078)"/>
  <path d="M472.088 21.5261L471.861 147.17L497.421 143.573V180.153L471.861 183.75V227.904L432.005 233.584V189.43L339.23 202.457L332.414 171.538L436.928 26.4868L472.088 21.5261ZM432.005 152.699L432.119 88.8166L381.547 159.799L432.005 152.699Z" fill="url(#paint20_linear_5261_69078)" fill-opacity="0.9"/>
  <defs>
    <linearGradient id="paint0_linear_5261_69078" x1="172.491" y1="121.528" x2="172.491" y2="147.402" gradientUnits="userSpaceOnUse">
      <stop stop-color="#6083FF"/>
      <stop offset="1" stop-color="#0C1E5E" stop-opacity="0"/>
    </linearGradient>
    <linearGradient id="paint1_linear_5261_69078" x1="119.568" y1="167.787" x2="119.568" y2="233.647" gradientUnits="userSpaceOnUse">
      <stop stop-color="#6083FF"/>
      <stop offset="1" stop-color="#0C1E5E" stop-opacity="0"/>
    </linearGradient>
    <linearGradient id="paint2_linear_5261_69078" x1="119.96" y1="67.4282" x2="119.96" y2="152.89" gradientUnits="userSpaceOnUse">
      <stop stop-color="#6083FF"/>
      <stop offset="1" stop-color="#0C1E5E" stop-opacity="0"/>
    </linearGradient>
    <linearGradient id="paint3_linear_5261_69078" x1="94.8702" y1="130.937" x2="94.8702" y2="159.947" gradientUnits="userSpaceOnUse">
      <stop stop-color="#6083FF"/>
      <stop offset="1" stop-color="#0C1E5E" stop-opacity="0"/>
    </linearGradient>
    <linearGradient id="paint4_linear_5261_69078" x1="186.305" y1="14.3012" x2="98.2724" y2="-64.3754" gradientUnits="userSpaceOnUse">
      <stop offset="0.170794" stop-color="#3D3BA9"/>
      <stop offset="0.537799" stop-color="#FF7BE2" stop-opacity="0.8"/>
      <stop offset="0.791667" stop-color="white"/>
    </linearGradient>
    <linearGradient id="paint5_linear_5261_69078" x1="156.561" y1="94.2974" x2="-11.2411" y2="40.6536" gradientUnits="userSpaceOnUse">
      <stop offset="0.170794" stop-color="#3D3BA9"/>
      <stop offset="0.537799" stop-color="#FF7BE2" stop-opacity="0.8"/>
      <stop offset="0.791667" stop-color="white"/>
    </linearGradient>
    <linearGradient id="paint6_linear_5261_69078" x1="162" y1="189" x2="-62.2652" y2="72.7923" gradientUnits="userSpaceOnUse">
      <stop stop-color="#3DDCFF" stop-opacity="0.8"/>
      <stop offset="0.427083" stop-color="#9D50FF" stop-opacity="0.5"/>
      <stop offset="0.977116" stop-color="#3DDCFF"/>
    </linearGradient>
    <linearGradient id="paint7_linear_5261_69078" x1="123.087" y1="16.0472" x2="123.087" y2="246.225" gradientUnits="userSpaceOnUse">
      <stop stop-color="#75E8E1"/>
      <stop offset="0.52" stop-color="#563E8C"/>
      <stop offset="1" stop-color="#FB8ED1"/>
    </linearGradient>
    <linearGradient id="paint8_linear_5261_69078" x1="39.6553" y1="22.3604" x2="128.855" y2="217.444" gradientUnits="userSpaceOnUse">
      <stop stop-color="#3DDCFF"/>
      <stop offset="0.427083" stop-color="#9D50FF" stop-opacity="0.5"/>
      <stop offset="0.977116" stop-color="#3DDCFF"/>
    </linearGradient>
    <linearGradient id="paint9_linear_5261_69078" x1="275.903" y1="44.4664" x2="275.903" y2="192.418" gradientUnits="userSpaceOnUse">
      <stop stop-color="#6083FF"/>
      <stop offset="1" stop-color="#0C1E5E" stop-opacity="0"/>
    </linearGradient>
    <linearGradient id="paint10_linear_5261_69078" x1="396.128" y1="27.4336" x2="99.9601" y2="232.724" gradientUnits="userSpaceOnUse">
      <stop offset="0.170794" stop-color="#3D3BA9"/>
      <stop offset="0.537799" stop-color="#FF7BE2" stop-opacity="0.8"/>
      <stop offset="0.791667" stop-color="white" stop-opacity="0.7"/>
      <stop offset="1" stop-color="white" stop-opacity="0.8"/>
    </linearGradient>
    <linearGradient id="paint11_linear_5261_69078" x1="203.028" y1="24.2726" x2="292.177" y2="216.8" gradientUnits="userSpaceOnUse">
      <stop stop-color="#3DDCFF"/>
      <stop offset="0.427083" stop-color="#9D50FF" stop-opacity="0.5"/>
      <stop offset="0.977116" stop-color="#3DDCFF"/>
    </linearGradient>
    <linearGradient id="paint12_linear_5261_69078" x1="465.552" y1="122.031" x2="465.552" y2="147.905" gradientUnits="userSpaceOnUse">
      <stop stop-color="#6083FF"/>
      <stop offset="1" stop-color="#0C1E5E" stop-opacity="0"/>
    </linearGradient>
    <linearGradient id="paint13_linear_5261_69078" x1="411.568" y1="167.787" x2="411.568" y2="233.647" gradientUnits="userSpaceOnUse">
      <stop stop-color="#6083FF"/>
      <stop offset="1" stop-color="#0C1E5E" stop-opacity="0"/>
    </linearGradient>
    <linearGradient id="paint14_linear_5261_69078" x1="411.96" y1="67.4283" x2="411.96" y2="152.89" gradientUnits="userSpaceOnUse">
      <stop stop-color="#6083FF"/>
      <stop offset="1" stop-color="#0C1E5E" stop-opacity="0"/>
    </linearGradient>
    <linearGradient id="paint15_linear_5261_69078" x1="386.87" y1="130.936" x2="386.87" y2="159.946" gradientUnits="userSpaceOnUse">
      <stop stop-color="#6083FF"/>
      <stop offset="1" stop-color="#0C1E5E" stop-opacity="0"/>
    </linearGradient>
    <linearGradient id="paint16_linear_5261_69078" x1="472" y1="27" x2="388.755" y2="-95.0406" gradientUnits="userSpaceOnUse">
      <stop offset="0.170794" stop-color="#3D3BA9"/>
      <stop offset="0.537799" stop-color="#FF7BE2" stop-opacity="0.8"/>
      <stop offset="0.791667" stop-color="white"/>
    </linearGradient>
    <linearGradient id="paint17_linear_5261_69078" x1="448.561" y1="94.2967" x2="280.759" y2="40.6528" gradientUnits="userSpaceOnUse">
      <stop offset="0.170794" stop-color="#3D3BA9"/>
      <stop offset="0.537799" stop-color="#FF7BE2" stop-opacity="0.8"/>
      <stop offset="0.791667" stop-color="white"/>
    </linearGradient>
    <linearGradient id="paint18_linear_5261_69078" x1="454" y1="189" x2="229.735" y2="72.792" gradientUnits="userSpaceOnUse">
      <stop stop-color="#3DDCFF" stop-opacity="0.8"/>
      <stop offset="0.427083" stop-color="#9D50FF" stop-opacity="0.5"/>
      <stop offset="0.977116" stop-color="#3DDCFF"/>
    </linearGradient>
    <linearGradient id="paint19_linear_5261_69078" x1="415.087" y1="16.047" x2="415.087" y2="246.225" gradientUnits="userSpaceOnUse">
      <stop stop-color="#75E8E1"/>
      <stop offset="0.52" stop-color="#563E8C"/>
      <stop offset="1" stop-color="#FB8ED1"/>
    </linearGradient>
    <linearGradient id="paint20_linear_5261_69078" x1="331.655" y1="22.3604" x2="420.855" y2="217.444" gradientUnits="userSpaceOnUse">
      <stop stop-color="#3DDCFF"/>
      <stop offset="0.427083" stop-color="#9D50FF" stop-opacity="0.5"/>
      <stop offset="0.977116" stop-color="#3DDCFF"/>
    </linearGradient>
  </defs>
</svg>
