<svg xmlns="http://www.w3.org/2000/svg" width="525" height="230" viewBox="0 0 525 230" fill="none">
  <path fill-rule="evenodd" clip-rule="evenodd" d="M459.986 65.8669C464.711 68.5636 468.721 72.3408 471.685 76.8857C479.215 87.7959 482.974 102.309 482.961 120.424V120.961C482.961 123.011 482.903 125.043 482.807 126.959C482.71 127.515 482.71 128.071 482.71 128.607C482.614 130.159 482.479 131.692 482.325 133.187L482.209 134.509C481.997 136.368 481.727 138.208 481.419 140.009C481.397 140.154 481.362 140.299 481.326 140.444C481.267 140.685 481.207 140.928 481.207 141.178C480.963 142.609 480.674 144.027 480.34 145.432L479.993 146.908C479.588 148.537 479.164 150.147 478.682 151.699C478.586 151.795 478.586 151.91 478.586 152.005C478.162 153.347 477.718 154.688 477.237 155.991L476.947 156.7C476.911 156.794 476.874 156.887 476.838 156.979C476.573 157.657 476.323 158.296 475.984 159.038C475.779 159.486 475.553 160.019 475.334 160.536C475.14 160.993 474.952 161.438 474.789 161.798C474.521 162.388 474.174 163.069 473.897 163.614C473.814 163.777 473.737 163.927 473.671 164.059C473.555 164.289 473.446 164.519 473.336 164.749C473.172 165.094 473.008 165.439 472.823 165.784C472.514 166.359 472.36 166.646 471.878 167.47C471.397 168.294 470.915 169.079 470.433 169.865L470.433 169.866L469.932 170.594C469.604 171.111 469.276 171.609 468.929 172.108V172.223L468.524 172.759C468.299 173.073 468 173.467 467.753 173.792C467.578 174.023 467.429 174.219 467.349 174.331C467.322 174.367 467.298 174.401 467.276 174.432C467.134 174.631 467.048 174.752 466.732 175.116C466.583 175.288 466.437 175.463 466.291 175.637C466.08 175.891 465.87 176.143 465.653 176.381L465.383 176.726L464.901 177.224C464.795 177.336 464.692 177.447 464.589 177.558C464.392 177.771 464.198 177.981 463.995 178.182C463.725 178.476 463.455 178.744 463.185 178.987L462.26 179.888L461.856 180.252L461.431 180.616L460.429 181.459L459.581 182.13L458.54 182.896L458.001 183.299L457.731 183.471L455.803 184.679L455.476 184.87C454.724 185.292 453.953 185.694 453.182 186.058L452.989 186.173L452.43 186.403L450.946 187.036L450.079 187.342C449.597 187.534 449.096 187.687 448.595 187.841L447.727 188.109L446.108 188.53L445.318 188.703C444.528 188.875 443.776 189.01 442.87 189.144C441.964 189.278 440.962 189.412 440.037 189.412H439.169H437.242H436.336C436.079 189.396 435.815 189.36 435.547 189.323C435.494 189.316 435.441 189.309 435.387 189.302C423.149 186.097 412.479 177.868 404.956 166.511L405.208 166.454L406.827 166.033L407.714 165.765C407.772 165.746 407.831 165.727 407.89 165.709C408.317 165.574 408.755 165.435 409.178 165.266L410.046 164.96L411.53 164.327L412.282 163.982C413.053 163.618 413.824 163.216 414.575 162.794L414.903 162.603C415.571 162.219 416.214 161.817 416.83 161.395L417.64 160.821L418.7 160.054L419.529 159.383L420.55 158.54L421.36 157.812L422.304 156.911L423.095 156.106C423.403 155.8 423.711 155.474 424 155.148L424.752 154.305C425.118 153.903 425.485 153.462 425.832 153.021L426.468 152.255L427.624 150.683C427.681 150.605 427.715 150.561 427.752 150.512C427.814 150.43 427.888 150.333 428.106 150.032C428.325 149.729 428.597 149.305 428.812 148.971C428.938 148.775 429.044 148.61 429.108 148.518C429.159 148.445 429.21 148.373 429.26 148.303C429.382 148.132 429.5 147.966 429.609 147.79C430.11 147.004 430.419 146.506 431.055 145.394C431.622 144.404 432.142 143.383 432.672 142.346C432.737 142.219 432.802 142.091 432.867 141.964C433.023 141.645 433.176 141.343 433.331 141.037C433.54 140.625 433.753 140.205 433.985 139.722C434.259 139.151 434.551 138.438 434.813 137.8C434.937 137.497 435.055 137.209 435.16 136.962C435.213 136.839 435.266 136.716 435.319 136.592C435.598 135.944 435.881 135.284 436.124 134.624C436.722 133.072 437.281 131.52 437.782 129.929V129.623C438.264 128.051 438.688 126.461 439.092 124.832C439.185 124.502 439.26 124.163 439.335 123.82C439.369 123.666 439.403 123.511 439.439 123.356C439.767 121.958 440.056 120.539 440.326 119.102C440.349 118.943 440.387 118.787 440.424 118.632C440.482 118.396 440.538 118.165 440.538 117.933C440.846 116.132 441.097 114.35 441.309 112.433C441.444 111.993 441.444 111.552 441.444 111.111C441.598 109.616 441.714 108.083 441.81 106.531C441.906 105.995 441.906 105.439 441.906 104.883C442.08 102.909 442.08 100.936 442.08 98.8855V98.8851V98.3677C442.108 85.1439 440.125 73.8453 436.13 64.4718C439.602 63.4887 443.19 62.8695 446.854 62.6475C450.62 62.975 454.272 63.6593 457.78 64.674L459.986 65.8669Z" fill="url(#paint0_linear_5248_69070)"/>
  <path d="M360.461 129.203C360.558 127.669 360.635 126.155 360.771 124.64C360.771 123.759 360.965 122.896 361.061 122.033C361.197 120.672 361.352 119.331 361.526 117.989C361.642 117.088 361.797 116.187 361.933 115.286C362.126 114.002 362.339 112.736 362.571 111.452C362.746 110.551 362.92 109.631 363.114 108.73C363.365 107.503 363.636 106.276 363.907 105.05C364.12 104.149 364.333 103.267 364.566 102.385C364.875 101.158 365.224 99.9507 365.553 98.743L366.308 96.1744C366.695 94.9476 367.102 93.7207 367.528 92.5131C367.799 91.708 368.07 90.9029 368.36 90.0978C369.038 88.1809 369.754 86.2639 370.529 84.5004C371.303 82.7368 372.252 80.5324 373.162 78.6347C373.471 77.9829 373.8 77.3887 374.11 76.7178C374.749 75.4718 375.388 74.2066 376.046 72.9798C376.705 71.753 377.247 70.8904 377.866 69.8553C378.486 68.8201 378.815 68.1875 379.338 67.3824C379.86 66.5773 380.673 65.3314 381.274 64.3346C381.874 63.3378 382.28 62.7819 382.822 62.0343C383.365 61.2867 383.636 60.9608 384.042 60.4049C384.836 59.3315 385.649 58.258 386.482 57.2037L388.03 55.2868C388.805 54.3666 389.579 53.3699 390.392 52.5456C391.206 51.7213 391.593 51.2804 392.193 50.6287C392.793 49.977 393.761 48.9802 394.574 48.1751C395.387 47.37 395.871 46.9291 396.51 46.2582C397.575 45.2805 398.621 44.3413 399.724 43.3445C401.157 42.1177 402.628 40.9483 404.119 39.8365L405.513 38.8206C406.694 37.958 407.894 37.1145 409.095 36.3286L409.791 35.8685C411.263 34.9484 412.754 34.0666 414.264 33.2232L415.116 32.7631C416.606 31.958 418.097 31.2105 419.627 30.5012C420.672 30.022 421.737 29.6002 422.802 29.1593C423.867 28.7185 424.37 28.4885 425.183 28.1818C426.306 27.7792 427.468 27.415 428.61 27.0508C429.365 26.8016 430.139 26.514 430.914 26.284C432.191 25.9198 433.508 25.6131 434.786 25.2872C435.444 25.1339 436.102 24.9422 436.722 24.808C438.658 24.3863 440.729 24.0221 442.782 23.7345C444.485 23.5045 446.17 23.332 447.835 23.1978H448.977C450.603 23.1019 452.23 23.0253 453.817 23.0253H454.456C455.914 23.0253 457.347 23.0828 458.754 23.1978H459.741C461.271 23.3128 462.8 23.5045 464.291 23.7345L465.162 23.8879C466.518 24.1179 467.834 24.3863 469.151 24.693L469.886 24.8655C471.338 25.2297 472.771 25.6514 474.165 26.1115L475.036 26.399C476.449 26.8974 477.843 27.415 479.218 28.0092L479.721 28.2393C481.173 28.891 482.606 29.5619 484 30.3287L442.956 8.20758C442.22 7.8242 441.485 7.44083 440.729 7.07661L438.697 6.13735L438.193 5.90727C436.819 5.31303 435.405 4.79547 433.992 4.29708L433.14 4.00955C431.843 3.58784 430.546 3.18531 429.268 2.84027H428.881C428.649 2.84027 428.397 2.72526 428.145 2.66776C426.848 2.36105 425.512 2.09266 424.176 1.86263L423.286 1.7093C421.795 1.47928 420.285 1.28759 418.736 1.17257H417.749C416.335 1.07673 414.903 1.01917 413.47 1H412.831C411.224 1 409.617 1.00005 407.991 1.17257H406.849C405.184 1.30676 403.499 1.47928 401.796 1.7093C399.743 1.99684 397.711 2.36105 395.716 2.78277C395.058 2.91695 394.419 3.10864 393.78 3.26199C392.464 3.58787 391.147 3.89455 389.908 4.25876C389.134 4.48879 388.379 4.77635 387.624 5.00638C386.462 5.38976 385.32 5.73476 384.178 6.15648L381.796 7.13412C380.732 7.57501 379.667 7.99675 378.621 8.47598L378.253 8.6293C376.859 9.28105 375.485 9.99032 374.13 10.7379L373.258 11.1979C371.748 12.0286 370.258 12.9104 368.786 13.8433L368.089 14.3033C367.528 14.6675 366.966 15.0318 366.424 15.4152C365.882 15.7985 365.146 16.3353 364.488 16.7953C363.83 17.2554 363.559 17.4471 363.094 17.8113C361.623 18.9231 360.151 20.0924 358.699 21.3192L357.151 22.6611L355.486 24.2329C354.847 24.8463 354.169 25.4598 353.55 26.1498C352.93 26.8399 351.962 27.76 351.168 28.5843C350.374 29.4086 349.948 29.8494 349.368 30.5012L348.903 30.9996C348.245 31.728 347.645 32.4948 346.967 33.2424C346.289 33.9899 345.921 34.45 345.418 35.1593C344.586 36.1944 343.792 37.2679 342.998 38.3413L341.759 39.9899C341.718 40.0569 341.673 40.1209 341.623 40.1815C341.139 40.8525 340.694 41.5809 340.23 42.2518C339.552 43.287 338.855 44.2837 338.197 45.338C337.538 46.3923 337.229 46.9866 336.745 47.8108C336.261 48.6351 335.506 49.8811 334.905 50.9354C334.848 51.0544 334.784 51.1696 334.712 51.2804C334.112 52.3731 333.57 53.5232 332.989 54.6542C332.679 55.2868 332.35 55.9002 332.04 56.5711C331.111 58.488 330.24 60.4049 329.407 62.4368C328.729 64.047 328.091 65.6573 327.471 67.3058C327.471 67.555 327.316 67.785 327.219 68.0342C326.929 68.8393 326.677 69.6444 326.387 70.4495C325.98 71.6571 325.574 72.884 325.187 74.1108C324.915 74.9542 324.683 75.8168 324.431 76.6794C324.083 77.8871 323.754 79.0947 323.425 80.3215L322.786 82.9861C322.489 84.264 322.218 85.4908 321.973 86.6665C321.779 87.5674 321.605 88.4876 321.431 89.3885C321.198 90.6537 321.005 91.9188 320.792 93.2223L320.385 95.9252C320.211 97.267 320.056 98.6088 319.92 99.9698C319.824 100.832 319.727 101.695 319.649 102.577C319.514 104.091 319.417 105.606 319.32 107.139C319.32 107.887 319.223 108.615 319.185 109.363C319.088 111.644 319.03 113.963 319.011 116.302C318.837 129.629 320.798 142.898 324.819 155.618C328.194 166.633 333.756 176.871 341.178 185.732C346.098 191.495 352.059 196.299 358.757 199.898L399.782 222C393.09 218.4 387.135 213.596 382.222 207.834C374.858 198.966 369.349 188.736 366.018 177.739C361.997 165.019 360.036 151.75 360.209 138.423C360.209 136.084 360.209 133.784 360.384 131.484C360.345 130.679 360.422 129.95 360.461 129.203Z" fill="url(#paint1_linear_5248_69070)" fill-opacity="0.6"/>
  <path d="M514.292 64.0362C520.99 78.5146 524.34 95.3165 524.34 114.442C524.501 132.938 521.009 151.285 514.06 168.438C507.764 184.262 497.76 198.358 484.881 209.55C472.777 220.159 457.808 226.99 441.835 229.194C430.552 230.95 419.006 229.827 408.278 225.93C398.253 222.264 389.355 216.071 382.454 207.956C375.09 199.117 369.564 188.909 366.196 177.924C362.191 165.183 360.238 151.89 360.411 138.541C360.245 120.058 363.758 101.725 370.748 84.6017C377.063 68.8086 387.042 54.7275 399.869 43.5091C411.942 32.8988 426.887 26.0663 442.838 23.8652C458.807 21.6378 473.033 24.1469 485.517 31.3925C498.309 39.0003 508.376 50.4199 514.292 64.0362ZM482.702 121.355V120.817C482.702 102.639 478.954 88.0837 471.458 77.1512C463.962 66.2188 454.191 61.5847 442.144 63.2489C430.084 64.9387 420.389 72.1587 413.061 84.9089C405.732 97.6592 402.029 113.213 401.952 131.57V132.108C401.952 150.465 405.681 165.072 413.138 175.927C420.595 186.783 430.392 191.366 442.529 189.676C454.551 187.986 464.245 180.747 471.612 167.958C478.98 155.17 482.676 139.635 482.702 121.355Z" fill="url(#paint2_linear_5248_69070)" fill-opacity="0.6"/>
  <path fill-rule="evenodd" clip-rule="evenodd" d="M290.642 65.8671C295.367 68.5638 299.378 72.3411 302.342 76.8859C309.871 87.7962 313.63 102.309 313.617 120.425V120.961C313.617 123.012 313.559 125.043 313.463 126.959C313.367 127.515 313.367 128.071 313.367 128.607C313.27 130.16 313.135 131.693 312.981 133.187L312.865 134.51C312.653 136.368 312.384 138.208 312.075 140.009C312.053 140.154 312.018 140.299 311.982 140.445C311.923 140.685 311.863 140.928 311.863 141.178C311.619 142.609 311.33 144.027 310.996 145.433L310.649 146.908C310.244 148.537 309.82 150.147 309.338 151.699C309.242 151.795 309.242 151.91 309.242 152.006C308.818 153.347 308.374 154.688 307.893 155.992L307.603 156.701C307.567 156.794 307.53 156.887 307.494 156.979C307.229 157.658 306.979 158.296 306.64 159.039C306.435 159.486 306.209 160.019 305.99 160.536C305.796 160.993 305.608 161.438 305.445 161.798C305.178 162.388 304.83 163.07 304.553 163.614C304.47 163.777 304.393 163.927 304.327 164.059C304.211 164.289 304.102 164.519 303.992 164.749C303.828 165.094 303.664 165.439 303.479 165.784C303.17 166.359 303.016 166.646 302.534 167.47C302.052 168.294 301.571 169.08 301.089 169.865L301.089 169.866L300.588 170.594C300.26 171.111 299.932 171.61 299.585 172.108V172.223L299.181 172.759C298.955 173.074 298.656 173.467 298.409 173.793C298.234 174.023 298.085 174.22 298.005 174.331C297.978 174.367 297.955 174.401 297.932 174.433C297.79 174.631 297.704 174.753 297.388 175.116C297.239 175.288 297.093 175.463 296.947 175.638C296.736 175.891 296.526 176.143 296.309 176.381L296.039 176.726L295.557 177.224C295.451 177.336 295.348 177.447 295.245 177.558C295.048 177.771 294.854 177.981 294.651 178.183C294.381 178.476 294.111 178.745 293.842 178.987L292.916 179.888L292.512 180.252L292.088 180.616L291.085 181.459L290.237 182.13L289.196 182.897L288.657 183.299L288.387 183.472L286.459 184.679L286.132 184.87C285.38 185.292 284.609 185.694 283.838 186.059L283.645 186.174L283.086 186.404L281.602 187.036L280.735 187.343C280.253 187.534 279.752 187.687 279.251 187.841L278.383 188.109L276.764 188.531L275.974 188.703C275.184 188.876 274.432 189.01 273.526 189.144C272.62 189.278 271.618 189.412 270.693 189.412H269.826H267.898H266.992C266.735 189.396 266.471 189.36 266.203 189.324C266.151 189.316 266.098 189.309 266.045 189.302C253.806 186.098 243.135 177.869 235.612 166.511L235.864 166.455L237.483 166.033L238.37 165.765C238.428 165.746 238.487 165.728 238.546 165.709C238.973 165.574 239.411 165.435 239.835 165.267L240.702 164.96L242.186 164.327L242.938 163.983C243.709 163.618 244.48 163.216 245.231 162.794L245.559 162.603C246.227 162.22 246.87 161.817 247.486 161.396L248.296 160.821L249.356 160.054L250.185 159.383L251.206 158.54L252.016 157.812L252.96 156.911L253.751 156.106C254.059 155.8 254.367 155.474 254.657 155.148L255.408 154.305C255.775 153.903 256.141 153.462 256.488 153.021L257.124 152.255L258.28 150.683C258.337 150.605 258.371 150.561 258.408 150.513C258.47 150.43 258.544 150.333 258.762 150.032C258.981 149.73 259.253 149.306 259.468 148.971C259.594 148.775 259.7 148.61 259.764 148.518C259.815 148.445 259.866 148.373 259.916 148.303C260.038 148.132 260.156 147.966 260.265 147.79C260.767 147.004 261.075 146.506 261.711 145.394C262.278 144.404 262.799 143.383 263.328 142.346C263.393 142.219 263.458 142.092 263.523 141.964C263.679 141.645 263.832 141.343 263.987 141.037C264.196 140.625 264.409 140.205 264.641 139.722C264.915 139.151 265.207 138.439 265.469 137.8C265.593 137.497 265.711 137.21 265.817 136.963C265.869 136.84 265.922 136.716 265.975 136.592C266.254 135.944 266.537 135.284 266.78 134.625C267.378 133.072 267.937 131.52 268.438 129.93V129.623C268.92 128.052 269.344 126.461 269.749 124.832C269.841 124.502 269.916 124.163 269.991 123.821C270.025 123.666 270.059 123.511 270.095 123.357C270.423 121.958 270.712 120.54 270.982 119.102C271.005 118.943 271.043 118.787 271.08 118.632C271.138 118.397 271.194 118.165 271.194 117.933C271.502 116.132 271.753 114.35 271.965 112.434C272.1 111.993 272.1 111.552 272.1 111.111C272.254 109.617 272.37 108.084 272.466 106.531C272.563 105.995 272.563 105.439 272.563 104.883C272.736 102.91 272.736 100.936 272.736 98.8857V98.8853V98.3679C272.764 85.1441 270.781 73.8454 266.786 64.4719C270.258 63.4887 273.846 62.8695 277.51 62.6475C281.276 62.9749 284.928 63.6592 288.435 64.6737L290.642 65.8671Z" fill="url(#paint3_linear_5248_69070)"/>
  <path d="M191.712 129.783C191.81 128.242 191.888 126.721 192.024 125.2C192.024 124.314 192.219 123.448 192.316 122.581C192.453 121.214 192.608 119.866 192.784 118.518C192.901 117.613 193.056 116.708 193.193 115.803C193.388 114.513 193.602 113.242 193.836 111.952C194.011 111.047 194.186 110.123 194.381 109.218C194.634 107.985 194.907 106.753 195.18 105.52C195.394 104.615 195.608 103.73 195.842 102.844C196.153 101.612 196.504 100.398 196.835 99.1853L197.595 96.605C197.984 95.3727 198.393 94.1403 198.822 92.9272C199.095 92.1184 199.367 91.3097 199.659 90.5009C200.341 88.5753 201.062 86.6497 201.841 84.8782C202.62 83.1067 203.574 80.8923 204.49 78.9859C204.802 78.3313 205.133 77.7343 205.444 77.0604C206.087 75.8087 206.73 74.5379 207.392 73.3055C208.054 72.0732 208.6 71.2066 209.223 70.1668C209.846 69.127 210.177 68.4916 210.703 67.6828C211.229 66.8741 212.047 65.6224 212.651 64.6211C213.255 63.6198 213.664 63.0615 214.209 62.3105C214.755 61.5595 215.027 61.2321 215.436 60.6737C216.235 59.5954 217.053 58.5171 217.891 57.458L219.449 55.5324C220.228 54.6081 221.007 53.6068 221.825 52.7788C222.643 51.9508 223.033 51.508 223.636 50.8533C224.24 50.1986 225.214 49.1973 226.032 48.3885C226.85 47.5798 227.337 47.1369 227.98 46.4629C229.051 45.4809 230.103 44.5374 231.213 43.5361C232.655 42.3037 234.135 41.1291 235.635 40.0122L237.037 38.9917C238.225 38.1252 239.433 37.278 240.641 36.4885L241.342 36.0263C242.822 35.102 244.322 34.2162 245.841 33.369L246.698 32.9069C248.198 32.0981 249.698 31.3472 251.236 30.6347C252.288 30.1533 253.36 29.7296 254.431 29.2868C255.502 28.8439 256.009 28.6128 256.827 28.3048C257.956 27.9004 259.125 27.5345 260.274 27.1687C261.034 26.9183 261.813 26.6295 262.592 26.3984C263.878 26.0325 265.202 25.7245 266.488 25.3971C267.15 25.2431 267.812 25.0505 268.435 24.9157C270.383 24.4921 272.467 24.1262 274.532 23.8374C276.246 23.6063 277.94 23.433 279.616 23.2982H280.765C282.401 23.202 284.037 23.1249 285.634 23.1249H286.277C287.744 23.1249 289.186 23.1827 290.601 23.2982H291.594C293.133 23.4138 294.672 23.6063 296.172 23.8374L297.048 23.9914C298.412 24.2225 299.736 24.4921 301.061 24.8002L301.801 24.9735C303.262 25.3393 304.703 25.763 306.105 26.2251L306.982 26.5139C308.404 27.0146 309.806 27.5345 311.189 28.1315L311.695 28.3625C313.156 29.0172 314.598 29.6912 316 30.4614L274.707 8.2402C273.967 7.85508 273.227 7.46997 272.467 7.10411L270.422 6.1606L269.916 5.92948C268.533 5.33255 267.111 4.81265 265.689 4.312L264.832 4.02317C263.527 3.59955 262.222 3.1952 260.936 2.8486H260.547C260.313 2.8486 260.06 2.73307 259.807 2.6753C258.502 2.36721 257.158 2.0976 255.814 1.86653L254.918 1.71251C253.418 1.48144 251.899 1.28889 250.341 1.17335H249.347C247.925 1.07707 246.484 1.01926 245.043 1H244.4C242.783 1 241.166 1.00005 239.53 1.17335H238.381C236.706 1.30814 235.012 1.48144 233.297 1.71251C231.233 2.00135 229.188 2.36721 227.181 2.79083C226.519 2.92562 225.876 3.11818 225.234 3.27223C223.909 3.59958 222.585 3.90765 221.338 4.27351C220.559 4.50458 219.799 4.79344 219.04 5.02451C217.871 5.40963 216.722 5.75618 215.573 6.17981L213.177 7.16188C212.106 7.60476 211.034 8.02841 209.983 8.5098L209.613 8.66383C208.21 9.31852 206.827 10.031 205.464 10.782L204.587 11.2441C203.068 12.0785 201.568 12.9643 200.088 13.9014L199.387 14.3635C198.822 14.7294 198.257 15.0953 197.712 15.4804C197.166 15.8655 196.426 16.4047 195.764 16.8668C195.102 17.3289 194.829 17.5215 194.361 17.8874C192.881 19.0042 191.401 20.1788 189.94 21.4111L188.382 22.7591L186.707 24.3381C186.064 24.9543 185.382 25.5704 184.759 26.2636C184.136 26.9569 183.162 27.8811 182.363 28.7091C181.565 29.5371 181.136 29.98 180.552 30.6347L180.084 31.1354C179.422 31.8671 178.818 32.6373 178.136 33.3883C177.455 34.1392 177.085 34.6014 176.578 35.3138C175.741 36.3536 174.942 37.432 174.143 38.5103L172.897 40.1663C172.856 40.2336 172.811 40.2979 172.761 40.3588C172.274 41.0328 171.826 41.7645 171.358 42.4385C170.676 43.4783 169.975 44.4796 169.313 45.5386C168.651 46.5977 168.339 47.1947 167.852 48.0227C167.365 48.8507 166.606 50.1023 166.002 51.1614C165.944 51.2809 165.879 51.3966 165.807 51.508C165.203 52.6055 164.658 53.7609 164.074 54.897C163.762 55.5324 163.431 56.1486 163.119 56.8226C162.184 58.7481 161.308 60.6737 160.47 62.7148C159.788 64.3323 159.146 65.9498 158.522 67.6058C158.522 67.8561 158.367 68.0872 158.269 68.3375C157.977 69.1462 157.724 69.955 157.432 70.7637C157.023 71.9769 156.614 73.2092 156.224 74.4416C155.951 75.2889 155.718 76.1554 155.464 77.0219C155.114 78.235 154.783 79.4481 154.452 80.6805L153.809 83.357C153.51 84.6408 153.237 85.8731 152.991 87.0541C152.796 87.9591 152.621 88.8834 152.445 89.7885C152.212 91.0593 152.017 92.3302 151.803 93.6396L151.393 96.3547C151.218 97.7026 151.062 99.0505 150.926 100.418C150.829 101.284 150.731 102.151 150.653 103.036C150.517 104.558 150.42 106.079 150.322 107.619C150.322 108.37 150.225 109.102 150.186 109.853C150.088 112.144 150.03 114.474 150.011 116.824C149.837 130.211 151.809 143.54 155.854 156.317C159.25 167.383 164.846 177.667 172.313 186.568C177.262 192.357 183.26 197.183 189.998 200.798L231.272 223C224.539 219.384 218.548 214.558 213.605 208.77C206.196 199.862 200.654 189.585 197.303 178.538C193.257 165.762 191.285 152.432 191.459 139.045C191.459 136.696 191.459 134.385 191.635 132.074C191.596 131.265 191.674 130.534 191.712 129.783Z" fill="url(#paint4_linear_5248_69070)" fill-opacity="0.8"/>
  <path d="M344.948 64.0362C351.646 78.5146 354.996 95.3165 354.996 114.442C355.157 132.938 351.665 151.284 344.716 168.438C338.42 184.262 328.416 198.358 315.537 209.55C303.433 220.159 288.464 226.99 272.491 229.194C261.208 230.95 249.662 229.826 238.934 225.93C228.909 222.264 220.012 216.071 213.111 207.956C205.747 199.117 200.22 188.908 196.853 177.924C192.847 165.183 190.895 151.89 191.067 138.54C190.901 120.058 194.415 101.725 201.404 84.6016C207.72 68.8086 217.699 54.7275 230.526 43.509C242.598 32.8988 257.544 26.0663 273.494 23.8652C289.463 21.6378 303.689 24.1469 316.174 31.3925C328.966 39.0003 339.032 50.4199 344.948 64.0362ZM313.358 121.355V120.817C313.358 102.639 309.61 88.0836 302.114 77.1512C294.618 66.2188 284.847 61.5847 272.8 63.2489C260.74 64.9386 251.046 72.1587 243.717 84.9089C236.388 97.6591 232.686 113.213 232.608 131.57V132.108C232.608 150.465 236.337 165.071 243.794 175.927C251.251 186.783 261.048 191.366 273.186 189.676C285.207 187.986 294.901 180.747 302.269 167.958C309.636 155.17 313.332 139.635 313.358 121.355Z" fill="url(#paint5_linear_5248_69070)" fill-opacity="0.8"/>
  <path d="M59.8067 220.666L16.7451 198.344C10.7213 195.208 5.10173 191.413 0 187.038L43.082 209.36C48.1767 213.735 53.7895 217.529 59.8067 220.666Z" fill="#1F2E5B"/>
  <path d="M43.082 209.359L0 187.037L25.3005 152.673L68.3621 174.995L43.082 209.359Z" fill="url(#paint6_linear_5248_69070)"/>
  <path d="M80.0674 147.892L36.9855 125.57L12.823 112.386L55.9049 134.708L80.0674 147.892Z" fill="#7E4769"/>
  <path d="M61.5138 37.907L18.4318 15.5848L134.834 0L177.916 22.3222L61.5138 37.907Z" fill="url(#paint7_linear_5248_69070)" fill-opacity="0.9"/>
  <path d="M55.9049 134.707L12.823 112.385L18.4317 15.5845L61.5137 37.9067L55.9049 134.707Z" fill="url(#paint8_linear_5248_69070)" fill-opacity="0.9"/>
  <path d="M177.916 22.3213V59.9573L97.3205 70.7409L95.0242 104.737C103.03 101.53 111.417 99.2675 120 97.9998C126.955 97.0164 134.008 96.8214 141.012 97.4191C147.291 97.9901 153.426 99.5606 159.159 102.065C164.592 104.447 169.439 107.89 173.385 112.171C177.645 116.969 180.808 122.56 182.672 128.589C185.02 136.039 186.145 143.791 186.004 151.569V152.111C186.004 172.672 179.447 189.915 166.333 203.841C153.219 217.768 135.769 226.157 113.984 229.01C86.4823 232.688 62.8482 226.118 43.082 209.301L68.3825 174.995C75.0424 180.42 82.5947 184.763 90.7363 187.85C98.0421 190.455 105.925 191.242 113.639 190.135C123.42 188.844 131.136 185.436 136.785 179.912C139.605 177.127 141.81 173.832 143.269 170.22C144.729 166.609 145.412 162.755 145.28 158.887V158.326C145.28 150.098 142.231 144.038 136.135 140.205C130.038 136.372 121.91 135.113 111.749 136.468C100.517 138.215 89.7699 142.1 80.1487 147.891L56.0066 134.707L61.6153 37.9061L177.916 22.3213Z" fill="url(#paint9_linear_5248_69070)" fill-opacity="0.8"/>
  <path fill-rule="evenodd" clip-rule="evenodd" d="M134.245 139.2C134.853 139.505 135.443 139.841 136.013 140.206C142.109 144.04 145.158 150.099 145.036 158.347V158.908C145.026 159.44 144.994 159.929 144.962 160.403C144.927 160.929 144.894 161.437 144.894 161.967L144.772 162.935C144.753 163.081 144.733 163.241 144.713 163.405C144.645 163.962 144.57 164.572 144.507 164.871C144.469 165.056 144.434 165.193 144.396 165.346C144.354 165.513 144.307 165.701 144.243 165.994C144.121 166.555 143.959 167.272 143.857 167.659C143.756 168.046 143.654 168.356 143.491 168.801C143.41 169.024 143.339 169.246 143.268 169.469C143.197 169.692 143.126 169.914 143.044 170.137C143.019 170.218 142.985 170.296 142.943 170.369C142.922 170.421 142.893 170.474 142.863 170.529C142.803 170.64 142.739 170.756 142.739 170.873C142.475 171.57 142.17 172.189 141.866 172.809L141.581 173.37C141.505 173.489 141.438 173.612 141.378 173.738C141.295 173.884 141.206 174.018 141.117 174.149C141.053 174.244 140.99 174.338 140.931 174.435C140.606 174.977 140.26 175.539 139.874 176.061C139.793 176.201 139.705 176.337 139.61 176.468C139.539 176.573 139.509 176.608 139.451 176.672C139.393 176.737 139.306 176.834 139.122 177.068C138.873 177.384 138.502 177.817 138.245 178.116C138.125 178.257 138.03 178.368 137.984 178.423C137.935 178.484 137.91 178.519 137.885 178.554C137.838 178.62 137.79 178.687 137.578 178.927C137.302 179.239 137.099 179.439 136.746 179.788C136.683 179.851 136.615 179.918 136.541 179.991C136.054 180.475 135.546 180.921 135.038 181.366L134.733 181.598C133.809 182.38 132.839 183.111 131.827 183.786C131.054 184.289 130.242 184.793 129.408 185.238H129.266C128.474 185.664 127.661 186.07 126.807 186.458H126.706C126.302 186.643 125.811 186.828 125.401 186.982C125.254 187.037 125.117 187.089 124.999 187.135C124.822 187.204 124.652 187.276 124.482 187.347C124.224 187.456 123.968 187.564 123.698 187.658L121.788 188.258L120.487 188.645L118.252 189.187L117.073 189.439C115.915 189.671 114.899 189.846 113.476 190.039L113.415 190.048C112.013 190.238 110.632 190.426 109.27 190.426H108.355H104.291H103.661C102.462 190.368 101.263 190.233 100.064 190.078L99.312 189.981C98.0114 189.788 96.7312 189.517 95.4509 189.226H95.408C93.2731 188.698 91.1455 188.048 89.0613 187.289C88.3883 187.024 87.7164 186.747 87.0377 186.458L86.1029 186.032L85.1275 185.606C84.2943 185.219 83.4611 184.812 82.6076 184.367L78.7762 182.391C77.2261 181.451 75.7526 180.445 74.3779 179.382L74.6033 179.657L54.3982 167.811L58.1737 167.982C58.9503 168.081 59.7298 168.162 60.5179 168.162H61.1479H62.139L65.2061 168.301C65.1865 168.255 65.1671 168.209 65.1478 168.162H65.2122H66.1267C67.5289 168.085 69.0937 167.93 70.3333 167.775C71.5729 167.62 72.7719 167.407 73.9505 167.175L75.0886 166.923C75.2859 166.878 75.4847 166.833 75.6837 166.789C76.243 166.664 76.8047 166.538 77.3443 166.381L78.6245 165.994L80.6567 165.394C80.8902 165.313 81.0793 165.232 81.2878 165.143C81.4786 165.061 81.6855 164.973 81.9573 164.871C82.0273 164.845 82.0976 164.819 82.1682 164.792C82.6707 164.605 83.1831 164.414 83.6643 164.193C84.5585 163.806 85.3917 163.38 86.2248 162.935H86.3671C87.2269 162.473 88.0612 161.969 88.8667 161.425C89.8853 160.75 90.8624 160.019 91.793 159.237C92.4026 158.715 93.0529 158.134 93.5813 157.63C94.1097 157.127 94.6584 156.508 95.0445 156.062C95.4306 155.617 95.898 155.036 96.1621 154.707C96.2173 154.638 96.2672 154.577 96.3149 154.519C96.4955 154.297 96.645 154.114 96.9344 153.7C97.1881 153.338 97.4809 152.863 97.7111 152.491C97.8128 152.326 97.9023 152.181 97.9708 152.074C98.1943 151.726 98.5195 151.203 98.6211 151.009C98.6541 150.946 98.6958 150.885 98.7369 150.825C98.8223 150.7 98.9056 150.579 98.9056 150.448C99.2307 149.77 99.5152 149.151 99.7794 148.512C99.8016 148.469 99.8284 148.426 99.8557 148.381C99.9279 148.263 100.003 148.14 100.003 148.028C100.189 147.548 100.376 146.955 100.499 146.561C100.511 146.526 100.521 146.492 100.531 146.46C100.578 146.312 100.618 146.19 100.66 146.065C100.727 145.862 100.796 145.653 100.897 145.317C101.039 144.845 101.18 144.196 101.268 143.794C101.281 143.735 101.293 143.68 101.304 143.633C101.331 143.51 101.353 143.416 101.376 143.321C101.421 143.132 101.466 142.943 101.547 142.53C101.557 142.479 101.567 142.428 101.578 142.377C101.692 141.803 101.812 141.198 101.812 140.594C101.934 140.264 101.934 139.955 101.934 139.626C101.997 139.176 102.032 138.722 102.052 138.267C107.935 136.653 113.563 135.73 118.122 135.73C123.489 135.73 128.169 136.547 132.077 138.076L134.245 139.2Z" fill="url(#paint10_linear_5248_69070)"/>
  <path fill-rule="evenodd" clip-rule="evenodd" d="M149.513 98.7409C147.894 98.3625 146.201 98.0723 144.452 97.8609C143.284 97.6805 142.11 97.5335 140.931 97.4204C133.927 96.8228 126.874 97.0177 119.918 98.0012C111.336 99.2689 102.949 101.531 94.9429 104.739L94.839 104.685L96.8807 75.0224C96.8819 75.022 96.8831 75.0215 96.8844 75.021C97.206 75.0451 97.5275 75.0708 97.8489 75.0982C100.892 75.3936 103.908 75.9049 106.872 76.6277L149.513 98.7409ZM154.339 100.231C152.825 99.6304 151.211 99.1375 149.515 98.7413L106.872 76.6272C110.006 77.401 113.06 78.4443 115.996 79.7441L116.972 80.17L160.033 102.492L159.078 102.066C157.53 101.381 155.948 100.768 154.339 100.231ZM160.455 102.679C160.426 102.672 160.396 102.665 160.364 102.657L160.033 102.492L116.972 80.1694L118.618 80.9825L160.455 102.679Z" fill="url(#paint11_linear_5248_69070)"/>
  <defs>
    <linearGradient id="paint0_linear_5248_69070" x1="433.618" y1="43.7721" x2="433.618" y2="189.412" gradientUnits="userSpaceOnUse">
      <stop stop-color="#6083FF"/>
      <stop offset="1" stop-color="#0C1E5E" stop-opacity="0"/>
    </linearGradient>
    <linearGradient id="paint1_linear_5248_69070" x1="497.095" y1="119.561" x2="268.612" y2="61.6366" gradientUnits="userSpaceOnUse">
      <stop offset="0.170794" stop-color="#3D3BA9"/>
      <stop offset="0.537799" stop-color="#FF7BE2" stop-opacity="0.8"/>
      <stop offset="0.791667" stop-color="white"/>
    </linearGradient>
    <linearGradient id="paint2_linear_5248_69070" x1="359.647" y1="23.8937" x2="445.655" y2="215.427" gradientUnits="userSpaceOnUse">
      <stop stop-color="#3DDCFF"/>
      <stop offset="0.427083" stop-color="#9D50FF" stop-opacity="0.5"/>
      <stop offset="0.977116" stop-color="#3DDCFF"/>
    </linearGradient>
    <linearGradient id="paint3_linear_5248_69070" x1="264.274" y1="43.7721" x2="264.274" y2="189.412" gradientUnits="userSpaceOnUse">
      <stop stop-color="#6083FF"/>
      <stop offset="1" stop-color="#0C1E5E" stop-opacity="0"/>
    </linearGradient>
    <linearGradient id="paint4_linear_5248_69070" x1="329.174" y1="120.097" x2="99.3488" y2="61.7437" gradientUnits="userSpaceOnUse">
      <stop offset="0.170794" stop-color="#3D3BA9"/>
      <stop offset="0.537799" stop-color="#FF7BE2" stop-opacity="0.8"/>
      <stop offset="0.791667" stop-color="white" stop-opacity="0.7"/>
    </linearGradient>
    <linearGradient id="paint5_linear_5248_69070" x1="213.902" y1="30.2321" x2="302.58" y2="239.184" gradientUnits="userSpaceOnUse">
      <stop stop-color="#3DDCFF"/>
      <stop offset="0.427083" stop-color="#9D50FF" stop-opacity="0.65"/>
      <stop offset="0.977116" stop-color="#3DDCFF"/>
    </linearGradient>
    <linearGradient id="paint6_linear_5248_69070" x1="115.5" y1="106.5" x2="-32.5" y2="236.5" gradientUnits="userSpaceOnUse">
      <stop stop-color="#6083FF"/>
      <stop offset="1" stop-color="#0C1E5E" stop-opacity="0"/>
    </linearGradient>
    <linearGradient id="paint7_linear_5248_69070" x1="229" y1="19" x2="134.168" y2="-109.904" gradientUnits="userSpaceOnUse">
      <stop offset="0.170794" stop-color="#3D3BA9"/>
      <stop offset="0.537799" stop-color="#FF7BE2" stop-opacity="0.8"/>
      <stop offset="0.791667" stop-color="white"/>
    </linearGradient>
    <linearGradient id="paint8_linear_5248_69070" x1="58.0248" y1="159.421" x2="-58.3773" y2="96.78" gradientUnits="userSpaceOnUse">
      <stop offset="0.170794" stop-color="#3D3BA9"/>
      <stop offset="0.537799" stop-color="#FF7BE2" stop-opacity="0.6"/>
      <stop offset="1" stop-color="white" stop-opacity="0.8"/>
    </linearGradient>
    <linearGradient id="paint9_linear_5248_69070" x1="63" y1="29.5" x2="160.614" y2="229.299" gradientUnits="userSpaceOnUse">
      <stop stop-color="#3DDCFF"/>
      <stop offset="0.427083" stop-color="#9D50FF" stop-opacity="0.65"/>
      <stop offset="0.977116" stop-color="#3DDCFF"/>
    </linearGradient>
    <linearGradient id="paint10_linear_5248_69070" x1="99.7188" y1="125.521" x2="99.7188" y2="190.426" gradientUnits="userSpaceOnUse">
      <stop stop-color="#6083FF"/>
      <stop offset="1" stop-color="#0C1E5E" stop-opacity="0"/>
    </linearGradient>
    <linearGradient id="paint11_linear_5248_69070" x1="127.647" y1="69.4741" x2="127.647" y2="104.739" gradientUnits="userSpaceOnUse">
      <stop stop-color="#6083FF"/>
      <stop offset="1" stop-color="#0C1E5E" stop-opacity="0"/>
    </linearGradient>
  </defs>
</svg>
