<svg xmlns="http://www.w3.org/2000/svg" width="1440" height="810" viewBox="0 0 1440 810" fill="none">
  <path d="M1098.32 255.927L1098.6 252.411L1102.12 252.688L1101.84 256.203L1098.32 255.927Z" fill="#4D88FF" fill-opacity="0.5"/>
  <path d="M1098.46 113.684L1098.58 112.235L1100.03 112.349L1099.92 113.798L1098.46 113.684Z" fill="#4D88FF"/>
  <path d="M1385.42 86.8696L1385.27 88.7732L1387.17 88.9229L1387.32 87.0193L1385.42 86.8696Z" fill="#4D88FF"/>
  <path d="M1150.9 75.5513L1151.07 73.3591L1153.27 73.5315L1153.09 75.7237L1150.9 75.5513Z" fill="#4D88FF"/>
  <path d="M1157.22 107.595L1157.32 106.295L1158.62 106.398L1158.52 107.697L1157.22 107.595Z" fill="#4D88FF"/>
  <path d="M1261 249.515L1261.28 246L1264.8 246.276L1264.52 249.792L1261 249.515Z" fill="#4D88FF"/>
  <path d="M1060.38 378.491L1060.65 374.976L1064.17 375.252L1063.9 378.768L1060.38 378.491Z" fill="#4D88FF" fill-opacity="0.5"/>
  <path d="M1031.88 270.164L1032.07 267.707L1034.53 267.9L1034.34 270.357L1031.88 270.164Z" fill="#4D88FF"/>
  <path d="M1321.2 427.425L1321.56 422.855L1326.14 423.215L1325.78 427.785L1321.2 427.425Z" fill="#4D88FF" fill-opacity="0.5"/>
  <path d="M1398.51 48.1152L1398.15 52.7008L1402.74 53.0614L1403.1 48.4759L1398.51 48.1152Z" fill="#4D88FF" fill-opacity="0.5"/>
  <path d="M1389.28 469.643L1389.66 464.764L1394.55 465.147L1394.16 470.027L1389.28 469.643Z" fill="#4D88FF" fill-opacity="0.5"/>
  <path d="M1413.87 350.341L1414.14 346.925L1417.56 347.194L1417.29 350.61L1413.87 350.341Z" fill="#4D88FF" fill-opacity="0.5"/>
  <g opacity="0.7">
    <path d="M1255.66 180.001L1258.93 179.744L1258.67 176.474L1255.4 176.732L1255.66 180.001Z" fill="#4D88FF"/>
    <path d="M1393.48 251.878L1389.7 253.003L1388.58 249.228L1392.36 248.103L1393.48 251.878Z" fill="#4D88FF" fill-opacity="0.5"/>
    <path d="M1371.76 155.405L1375.78 154.208L1374.58 150.19L1370.56 151.388L1371.76 155.405Z" fill="#4D88FF" fill-opacity="0.5"/>
    <path d="M1089.48 200.577L1093.5 199.379L1092.3 195.362L1088.28 196.559L1089.48 200.577Z" fill="#4D88FF" fill-opacity="0.5"/>
    <path d="M1295.74 82.7397L1298.77 82.5021L1298.53 79.4807L1295.51 79.7183L1295.74 82.7397Z" fill="#4D88FF" fill-opacity="0.5"/>
    <path d="M1137.55 293.267L1140.36 292.429L1139.52 289.618L1136.71 290.456L1137.55 293.267Z" fill="#4D88FF" fill-opacity="0.5"/>
    <path d="M1099.19 289.166L1104.42 287.607L1102.86 282.379L1097.63 283.938L1099.19 289.166Z" fill="#4D88FF" fill-opacity="0.5"/>
    <path d="M912.333 576.248L908.312 575.051L909.511 571.033L913.532 572.231L912.333 576.248Z" fill="#4D88FF" fill-opacity="0.5"/>
    <path d="M832.108 520.521L828.835 520.263L829.092 516.994L832.365 517.251L832.108 520.521Z" fill="#4D88FF"/>
    <path d="M694.284 592.397L698.063 593.523L699.19 589.748L695.41 588.622L694.284 592.397Z" fill="#4D88FF" fill-opacity="0.5"/>
    <path d="M716.01 495.925L711.988 494.727L713.187 490.71L717.208 491.907L716.01 495.925Z" fill="#4D88FF" fill-opacity="0.5"/>
    <path d="M998.289 541.096L994.268 539.899L995.467 535.882L999.488 537.079L998.289 541.096Z" fill="#4D88FF" fill-opacity="0.5"/>
    <path d="M792.022 423.259L788.997 423.022L789.235 420L792.26 420.238L792.022 423.259Z" fill="#4D88FF" fill-opacity="0.5"/>
    <path d="M950.215 633.786L947.402 632.948L948.241 630.138L951.054 630.976L950.215 633.786Z" fill="#4D88FF" fill-opacity="0.5"/>
    <path d="M988.579 629.685L983.347 628.127L984.906 622.899L990.139 624.457L988.579 629.685Z" fill="#4D88FF" fill-opacity="0.5"/>
    <path d="M670.722 597.443L670.906 595.102L673.25 595.286L673.066 597.627L670.722 597.443Z" fill="#4D88FF" fill-opacity="0.6"/>
    <path d="M650.051 752.304L650.258 749.666L652.898 749.874L652.691 752.511L650.051 752.304Z" fill="#4D88FF"/>
    <path d="M561.346 567.194L561.116 570.107L564.032 570.336L564.261 567.423L561.346 567.194Z" fill="#4D88FF"/>
    <path d="M619.812 525.822L620.056 522.723L623.158 522.967L622.914 526.066L619.812 525.822Z" fill="#4D88FF"/>
    <path d="M847.356 647.503L847.6 644.404L850.702 644.648L850.458 647.747L847.356 647.503Z" fill="#4D88FF" fill-opacity="0.5"/>
    <path d="M766.438 684.646L766.572 682.947L768.273 683.08L768.139 684.779L766.438 684.646Z" fill="#4D88FF" fill-opacity="0.5"/>
    <path d="M710.538 789.734L708.945 787.064L711.617 785.472L713.211 788.142L710.538 789.734Z" fill="#4D88FF" fill-opacity="0.5"/>
    <path d="M678.709 718.516L678.88 716.352L681.046 716.522L680.875 718.686L678.709 718.516Z" fill="#4D88FF" fill-opacity="0.6"/>
    <path d="M700.033 735.894L700.492 730.063L706.328 730.522L705.869 736.352L700.033 735.894Z" fill="#4D88FF" fill-opacity="0.5"/>
    <g opacity="0.5">
      <path d="M553.357 514.235L553.542 511.894L555.885 512.078L555.701 514.419L553.357 514.235Z" fill="#4D88FF" fill-opacity="0.6"/>
      <path d="M532.686 669.096L532.894 666.458L535.534 666.666L535.327 669.304L532.686 669.096Z" fill="#4D88FF"/>
      <path d="M443.981 483.99L443.752 486.902L446.667 487.131L446.896 484.219L443.981 483.99Z" fill="#4D88FF"/>
      <path d="M502.448 442.615L502.692 439.516L505.794 439.76L505.55 442.859L502.448 442.615Z" fill="#4D88FF"/>
      <path d="M729.992 564.296L730.236 561.197L733.338 561.441L733.094 564.54L729.992 564.296Z" fill="#4D88FF" fill-opacity="0.5"/>
      <path d="M649.074 601.438L649.208 599.74L650.908 599.873L650.775 601.572L649.074 601.438Z" fill="#4D88FF" fill-opacity="0.5"/>
      <path d="M593.175 706.526L591.581 703.857L594.253 702.264L595.847 704.934L593.175 706.526Z" fill="#4D88FF" fill-opacity="0.5"/>
      <path d="M561.346 635.308L561.516 633.144L563.682 633.315L563.511 635.478L561.346 635.308Z" fill="#4D88FF" fill-opacity="0.6"/>
      <path d="M582.669 652.689L583.128 646.858L588.964 647.317L588.505 653.148L582.669 652.689Z" fill="#4D88FF" fill-opacity="0.5"/>
    </g>
    <g opacity="0.5">
      <path d="M184.289 575.506L184.473 573.165L186.817 573.349L186.632 575.69L184.289 575.506Z" fill="#4D88FF" fill-opacity="0.6"/>
      <path d="M163.618 730.367L163.825 727.729L166.466 727.937L166.258 730.575L163.618 730.367Z" fill="#4D88FF"/>
      <path d="M74.9127 545.261L74.6834 548.173L77.5986 548.402L77.8279 545.49L74.9127 545.261Z" fill="#4D88FF"/>
      <path d="M133.379 503.886L133.623 500.787L136.725 501.031L136.481 504.13L133.379 503.886Z" fill="#4D88FF"/>
      <path d="M360.923 625.567L361.167 622.468L364.269 622.712L364.025 625.811L360.923 625.567Z" fill="#4D88FF" fill-opacity="0.5"/>
      <path d="M280.005 662.709L280.139 661.011L281.84 661.144L281.706 662.843L280.005 662.709Z" fill="#4D88FF" fill-opacity="0.5"/>
      <path d="M224.106 767.797L222.512 765.128L225.185 763.535L226.778 766.205L224.106 767.797Z" fill="#4D88FF" fill-opacity="0.5"/>
      <path d="M192.277 696.579L192.448 694.415L194.613 694.586L194.443 696.749L192.277 696.579Z" fill="#4D88FF" fill-opacity="0.6"/>
      <path d="M213.6 713.96L214.059 708.129L219.896 708.588L219.437 714.419L213.6 713.96Z" fill="#4D88FF" fill-opacity="0.5"/>
    </g>
  </g>
  <g opacity="0.3">
    <path d="M54.6057 237.82L54.8824 234.304L58.4013 234.581L58.1245 238.096L54.6057 237.82Z" fill="#4D88FF" fill-opacity="0.5"/>
    <path d="M54.7495 95.5771L54.8636 94.1276L56.3146 94.2416L56.2005 95.6912L54.7495 95.5771Z" fill="#4D88FF"/>
    <path d="M341.704 68.7627L341.554 70.6663L343.459 70.816L343.609 68.9124L341.704 68.7627Z" fill="#4D88FF"/>
    <path d="M107.185 57.4443L107.358 55.2521L109.552 55.4245L109.38 57.6167L107.185 57.4443Z" fill="#4D88FF"/>
    <path d="M113.501 89.4878L113.603 88.1885L114.904 88.2907L114.802 89.59L113.501 89.4878Z" fill="#4D88FF"/>
    <path d="M119.052 297.713L119.329 294.198L122.848 294.474L122.571 297.989L119.052 297.713Z" fill="#4D88FF"/>
    <path d="M16.6622 360.384L16.9389 356.869L20.4579 357.145L20.1811 360.661L16.6622 360.384Z" fill="#4D88FF" fill-opacity="0.5"/>
    <path d="M277.49 409.318L277.85 404.748L282.424 405.108L282.065 409.678L277.49 409.318Z" fill="#4D88FF" fill-opacity="0.5"/>
    <path d="M412.104 79.6167L411.743 84.2022L416.333 84.5629L416.694 79.9773L412.104 79.6167Z" fill="#4D88FF" fill-opacity="0.5"/>
    <path d="M402.872 501.145L403.256 496.265L408.14 496.649L407.756 501.528L402.872 501.145Z" fill="#4D88FF" fill-opacity="0.5"/>
    <path d="M427.464 381.842L427.733 378.426L431.152 378.695L430.883 382.111L427.464 381.842Z" fill="#4D88FF" fill-opacity="0.5"/>
    <path d="M326.113 220.452L322.092 219.255L323.291 215.237L327.312 216.435L326.113 220.452Z" fill="#4D88FF" fill-opacity="0.5"/>
    <path d="M245.888 164.724L242.615 164.467L242.873 161.198L246.145 161.455L245.888 164.724Z" fill="#4D88FF"/>
    <path d="M108.064 236.601L111.843 237.727L112.97 233.951L109.19 232.826L108.064 236.601Z" fill="#4D88FF" fill-opacity="0.5"/>
    <path d="M129.79 140.128L125.769 138.931L126.967 134.914L130.989 136.111L129.79 140.128Z" fill="#4D88FF" fill-opacity="0.5"/>
    <path d="M412.07 185.3L408.048 184.102L409.247 180.085L413.268 181.283L412.07 185.3Z" fill="#4D88FF" fill-opacity="0.5"/>
    <path d="M259.026 73.2812L256.002 73.0436L256.24 70.0222L259.264 70.2598L259.026 73.2812Z" fill="#4D88FF" fill-opacity="0.5"/>
    <path d="M363.996 277.99L361.182 277.152L362.021 274.341L364.834 275.179L363.996 277.99Z" fill="#4D88FF" fill-opacity="0.5"/>
    <path d="M402.36 273.889L397.127 272.33L398.687 267.102L403.92 268.661L402.36 273.889Z" fill="#4D88FF" fill-opacity="0.5"/>
    <path d="M84.5024 241.646L84.6867 239.305L87.0303 239.489L86.846 241.831L84.5024 241.646Z" fill="#4D88FF" fill-opacity="0.6"/>
    <path d="M63.831 396.507L64.0386 393.87L66.6789 394.077L66.4712 396.715L63.831 396.507Z" fill="#4D88FF"/>
    <path d="M33.5927 170.026L33.8367 166.927L36.9387 167.171L36.6947 170.27L33.5927 170.026Z" fill="#4D88FF"/>
    <path d="M261.137 291.707L261.381 288.608L264.483 288.852L264.239 291.951L261.137 291.707Z" fill="#4D88FF" fill-opacity="0.5"/>
    <path d="M180.219 328.849L180.352 327.15L182.053 327.284L181.919 328.983L180.219 328.849Z" fill="#4D88FF" fill-opacity="0.5"/>
    <path d="M124.319 433.938L122.725 431.268L125.397 429.675L126.991 432.345L124.319 433.938Z" fill="#4D88FF" fill-opacity="0.5"/>
    <path d="M92.4898 362.719L92.6601 360.556L94.8259 360.726L94.6556 362.889L92.4898 362.719Z" fill="#4D88FF" fill-opacity="0.6"/>
    <path d="M113.814 380.097L114.273 374.267L120.109 374.725L119.65 380.556L113.814 380.097Z" fill="#4D88FF" fill-opacity="0.5"/>
    <g opacity="0.5">
      <path d="M143.772 208.5L144.016 205.401L147.118 205.645L146.874 208.744L143.772 208.5Z" fill="#4D88FF" fill-opacity="0.5"/>
      <path d="M62.8544 245.643L62.9881 243.944L64.6886 244.077L64.5549 245.776L62.8544 245.643Z" fill="#4D88FF" fill-opacity="0.5"/>
      <path d="M6.95496 350.73L5.36106 348.061L8.03347 346.469L9.62736 349.138L6.95496 350.73Z" fill="#4D88FF" fill-opacity="0.5"/>
      <path d="M-3.55084 296.893L-3.09185 291.062L2.74451 291.521L2.28551 297.352L-3.55084 296.893Z" fill="#4D88FF" fill-opacity="0.5"/>
    </g>
  </g>
  <path d="M1221.16 118.516L1221.41 115.337L1224.59 115.587L1224.34 118.766L1221.16 118.516Z" fill="#4D88FF" fill-opacity="0.5"/>
  <path d="M1279.44 172.678L1279.69 169.499L1282.87 169.749L1282.62 172.928L1279.44 172.678Z" fill="#4D88FF"/>
  <path d="M1186.84 229.353L1187.1 226.174L1190.28 226.424L1190.03 229.603L1186.84 229.353Z" fill="#4D88FF" fill-opacity="0.5"/>
  <path d="M1161.07 131.391L1161.25 129.169L1163.47 129.344L1163.3 131.566L1161.07 131.391Z" fill="#4D88FF"/>
  <path d="M1422.72 273.605L1423.04 269.472L1427.18 269.797L1426.85 273.93L1422.72 273.605Z" fill="#4D88FF" fill-opacity="0.5"/>
  <path d="M974.65 49.5156L974.9 46.3366L978.083 46.5866L977.832 49.7656L974.65 49.5156Z" fill="#4D88FF" fill-opacity="0.5"/>
  <path d="M1032.93 103.678L1033.18 100.499L1036.36 100.749L1036.11 103.928L1032.93 103.678Z" fill="#4D88FF"/>
  <path d="M940.337 160.353L940.587 157.173L943.77 157.423L943.519 160.603L940.337 160.353Z" fill="#4D88FF" fill-opacity="0.5"/>
  <path d="M914.566 62.3906L914.741 60.1687L916.965 60.3435L916.79 62.5654L914.566 62.3906Z" fill="#4D88FF"/>
  <path d="M1176.21 204.604L1176.53 200.472L1180.67 200.797L1180.35 204.93L1176.21 204.604Z" fill="#4D88FF" fill-opacity="0.5"/>
  <path d="M1286.98 199.625L1286.65 203.771L1290.8 204.097L1291.13 199.951L1286.98 199.625Z" fill="#4D88FF" fill-opacity="0.5"/>
  <path d="M1278.63 580.819L1278.97 576.407L1283.39 576.754L1283.04 581.166L1278.63 580.819Z" fill="#4D88FF" fill-opacity="0.5"/>
  <path d="M1300.87 472.933L1301.11 469.843L1304.2 470.086L1303.96 473.176L1300.87 472.933Z" fill="#4D88FF" fill-opacity="0.5"/>
</svg>
