<svg width="48" height="48" viewBox="0 0 48 48" fill="none" xmlns="http://www.w3.org/2000/svg">
<path fill-rule="evenodd" clip-rule="evenodd" d="M26.1906 0.657613L42.5962 10.1295C43.3466 10.5616 43.9699 11.1838 44.4032 11.9335C44.8365 12.6832 45.0645 13.5338 45.0643 14.3997V33.3482C45.0646 34.2133 44.8371 35.0631 44.4046 35.8123C43.9722 36.5615 43.3502 37.1836 42.6011 37.6161L26.1954 47.088C25.4465 47.5204 24.597 47.748 23.7322 47.748C22.8674 47.748 22.0178 47.5204 21.2689 47.088L4.86328 37.6161C4.11415 37.1836 3.49211 36.5615 3.0597 35.8123C2.6273 35.0631 2.39978 34.2133 2.40002 33.3482V14.3997C2.39978 13.5347 2.6273 12.6849 3.0597 11.9357C3.49211 11.1865 4.11415 10.5644 4.86328 10.1319L21.2689 0.660025C22.0178 0.227633 22.8674 0 23.7322 0C24.597 0 25.4465 0.227633 26.1954 0.660025L26.1906 0.657613Z" fill="url(#paint0_linear_1468_1456)"/>
<path fill-rule="evenodd" clip-rule="evenodd" d="M29.0165 31.0257C27.9392 31.3793 26.7912 31.461 25.6747 31.2636C25.3845 31.2255 24.8946 31.1351 24.3713 31.0257L23.4912 34.27L21.498 33.7349L22.3519 30.5476L20.8344 30.1409L19.9805 33.3281L17.9873 32.793L18.8412 29.6057L14.9285 28.5568L15.9798 26.2711L17.1691 26.5922C17.5687 26.6992 17.7471 26.7063 17.9564 26.5922C18.0503 26.5308 18.1309 26.4511 18.1934 26.358C18.2559 26.2648 18.2991 26.16 18.3203 26.0499L20.53 17.7987C20.6032 17.6418 20.6385 17.4699 20.6332 17.2968C20.6278 17.1237 20.5819 16.9542 20.499 16.8021C20.3325 16.4715 19.7855 16.2884 19.4691 16.2028L18.3156 15.8935L18.8697 13.8242L22.7943 14.8708L23.6506 11.674L25.6438 12.2092L24.7875 15.406L26.305 15.8127L27.1613 12.6159L29.1545 13.1511L28.2863 16.3859C29.556 16.7222 30.6943 17.4344 31.552 18.4291C31.8737 18.8936 32.0762 19.43 32.1417 19.9912C32.2072 20.5524 32.1338 21.1211 31.9279 21.6472C31.7292 22.1989 31.4032 22.696 30.9764 23.0981C30.5456 23.3898 30.0688 23.6069 29.566 23.7403C30.1202 24.0328 30.6147 24.4265 31.024 24.901C31.3368 25.3368 31.5386 25.8422 31.612 26.3736C31.6853 26.9049 31.628 27.4461 31.445 27.9503C31.3254 28.6238 31.0407 29.2572 30.6166 29.7939C30.1924 30.3305 29.6418 30.7538 29.0142 31.0257H29.0165ZM24.8779 24.1042C24.1374 23.8664 23.3858 23.665 22.6231 23.5001L21.4766 27.7814C21.4766 27.7814 22.7919 28.1644 23.6958 28.3356C24.485 28.5045 25.2986 28.5263 26.0957 28.3998C26.4439 28.3456 26.7677 28.1877 27.0248 27.9467C27.282 27.7057 27.4605 27.3928 27.5371 27.0488C27.6335 26.7154 27.6274 26.3606 27.5197 26.0307C27.4119 25.7007 27.2075 25.4107 26.933 25.1983C26.3181 24.7161 25.6222 24.3472 24.8779 24.109V24.1042ZM24.8137 21.9635C25.5331 22.1406 26.2827 22.1568 27.0091 22.0111C27.3243 21.9465 27.6131 21.7893 27.8385 21.5597C28.0639 21.33 28.2157 21.0383 28.2744 20.722C28.3564 20.3439 28.3132 19.9495 28.1515 19.5982C27.9897 19.2468 27.7182 18.9575 27.3777 18.7739C26.7853 18.4022 26.1373 18.1276 25.4583 17.9605C24.8375 17.7845 24.1881 17.6679 24.1881 17.6679L23.1559 21.5188C23.1559 21.5188 24.0811 21.7947 24.8208 21.9635H24.8137Z" fill="white"/>
<defs>
<linearGradient id="paint0_linear_1468_1456" x1="37.9821" y1="33.1849" x2="6.47528" y2="14.8088" gradientUnits="userSpaceOnUse">
<stop stop-color="#FF9400"/>
<stop offset="1" stop-color="#FFBB21"/>
</linearGradient>
</defs>
</svg>
