<svg width="1118" height="198" viewBox="0 0 1118 198" fill="none" xmlns="http://www.w3.org/2000/svg">
<g clip-path="url(#clip0_1300_13723)">
<path d="M655.246 42.2333L658.415 45.401L655.254 48.5611L652.085 45.3935L655.246 42.2333Z" fill="#4D88FF" fill-opacity="0.5"/>
<path d="M792.557 159.759L793.863 161.066L792.56 162.369L791.253 161.063L792.557 159.759Z" fill="#4D88FF"/>
<path d="M544.374 54.8613L547.543 58.0289L544.381 61.1891L541.213 58.0215L544.374 54.8613Z" fill="#4D88FF"/>
<path d="M306.231 115.319L310.351 119.437L306.241 123.545L302.122 119.427L306.231 115.319Z" fill="#4D88FF" fill-opacity="0.5"/>
<path d="M114.388 160.269L118.786 164.666L114.398 169.052L110 164.656L114.388 160.269Z" fill="#4D88FF" fill-opacity="0.5"/>
<path d="M612.455 94.7142L608.259 97.4245L610.98 101.625L615.176 98.9146L612.455 94.7142Z" fill="#4D88FF" fill-opacity="0.5"/>
<path d="M687.793 195.249L692.258 192.366L695.153 196.835L690.688 199.719L687.793 195.249Z" fill="#4D88FF" fill-opacity="0.5"/>
<path d="M626.958 67.8633L629.068 69.973L626.963 72.0777L624.853 69.968L626.958 67.8633Z" fill="#4D88FF" fill-opacity="0.6"/>
<path d="M738.027 77.9476L740.821 80.7399L738.034 83.5258L735.24 80.7334L738.027 77.9476Z" fill="#4D88FF"/>
<path d="M433.311 196.633L436.105 199.425L433.318 202.211L430.525 199.418L433.311 196.633Z" fill="#4D88FF" fill-opacity="0.5"/>
<path d="M463.981 88.0638L465.513 89.5945L463.985 91.1217L462.454 89.591L463.981 88.0638Z" fill="#4D88FF" fill-opacity="0.5"/>
<g opacity="0.5">
<path opacity="0.5" d="M803.881 23.5193L805.991 25.6289L803.886 27.7337L801.775 25.624L803.881 23.5193Z" fill="#4D88FF" fill-opacity="0.6"/>
<path opacity="0.5" d="M914.95 33.6036L917.744 36.396L914.957 39.1818L912.163 36.3894L914.95 33.6036Z" fill="#4D88FF"/>
<path opacity="0.5" d="M610.234 152.289L613.028 155.081L610.241 157.867L607.448 155.075L610.234 152.289Z" fill="#4D88FF" fill-opacity="0.5"/>
<path opacity="0.5" d="M640.903 43.7201L642.435 45.2509L640.907 46.7781L639.376 45.2472L640.903 43.7201Z" fill="#4D88FF" fill-opacity="0.5"/>
</g>
<path opacity="0.5" fill-rule="evenodd" clip-rule="evenodd" d="M614.472 609.21C659.264 661.774 731.439 691.021 820.49 684.321C909.555 677.619 998.565 636.226 1070.46 574.671C1142.35 513.116 1197.05 431.462 1217.58 344.33C1238.1 257.212 1220.57 181.183 1175.78 128.619C1130.99 76.0558 1058.81 46.8093 969.759 53.5094C880.694 60.2105 791.683 101.604 719.79 163.159C647.897 224.714 593.195 306.368 572.668 393.5C552.145 480.618 569.68 556.647 614.472 609.21ZM571.629 393.254C530.454 568.037 641.908 698.829 820.57 685.387C999.231 671.945 1177.44 519.358 1218.62 344.576C1259.8 169.793 1148.34 39.0006 969.68 52.4428C791.018 65.885 612.805 218.471 571.629 393.254Z" fill="url(#paint0_linear_1300_13723)"/>
<path opacity="0.5" fill-rule="evenodd" clip-rule="evenodd" d="M592.777 -504.381C547.985 -556.944 475.81 -586.191 386.759 -579.491C297.694 -572.79 208.683 -531.396 136.79 -469.841C64.8969 -408.286 10.1941 -326.632 -10.3326 -239.5C-30.856 -152.382 -13.3204 -76.3534 31.4716 -23.7896C76.2637 28.7741 148.438 58.0206 237.49 51.3205C326.555 44.6193 415.566 3.22571 487.459 -58.3292C559.352 -119.884 614.054 -201.538 634.581 -288.67C655.104 -375.788 637.569 -451.817 592.777 -504.381ZM635.62 -288.424C676.795 -463.207 565.341 -594 386.679 -580.557C208.018 -567.115 29.8043 -414.529 -11.3713 -239.746C-52.5468 -64.9631 58.9077 65.8293 237.569 52.387C416.231 38.9448 594.444 -113.642 635.62 -288.424Z" fill="url(#paint1_linear_1300_13723)"/>
</g>
<defs>
<linearGradient id="paint0_linear_1300_13723" x1="703.8" y1="144.393" x2="915.308" y2="391.423" gradientUnits="userSpaceOnUse">
<stop stop-color="#8FBCFF" stop-opacity="0.6"/>
<stop offset="1" stop-color="#8FBCFF" stop-opacity="0"/>
</linearGradient>
<linearGradient id="paint1_linear_1300_13723" x1="503.449" y1="-39.563" x2="291.941" y2="-286.593" gradientUnits="userSpaceOnUse">
<stop stop-color="#8FBCFF" stop-opacity="0.6"/>
<stop offset="1" stop-color="#8FBCFF" stop-opacity="0"/>
</linearGradient>
<clipPath id="clip0_1300_13723">
<rect width="1118" height="198" fill="white"/>
</clipPath>
</defs>
</svg>
