<svg xmlns="http://www.w3.org/2000/svg" width="1440" height="810" viewBox="0 0 1440 810" fill="none">
  <path fill-rule="evenodd" clip-rule="evenodd" d="M106.763 508.571C128.443 633.167 225.24 745.184 392.828 814.669C560.428 884.161 766.774 897.786 964.923 863.508C1163.07 829.231 1352.76 747.097 1487.09 625.375C1621.41 503.663 1674.7 365.681 1653.02 241.084C1631.35 116.488 1534.55 4.47155 1366.96 -65.0143C1199.36 -134.506 993.014 -148.131 794.864 -113.853C596.715 -79.5759 407.031 2.55767 272.701 124.28C138.382 245.992 85.0833 383.974 106.763 508.571ZM270.941 122.341C1.38923 366.593 55.5113 677.641 391.826 817.086C728.142 956.531 1219.29 871.567 1488.85 627.314C1758.4 383.062 1704.28 72.0136 1367.96 -67.431C1031.65 -206.876 540.494 -121.912 270.941 122.341Z" fill="url(#paint0_linear_5267_69113)"/>
  <path fill-rule="evenodd" clip-rule="evenodd" d="M99.274 477.771C121.111 603.27 218.558 715.772 386.601 785.447C554.647 855.123 761.41 868.745 959.857 834.415C1158.3 800.086 1348.38 717.816 1483.07 595.771C1617.75 473.727 1671.5 335.071 1649.66 209.572C1627.83 84.0732 1530.38 -28.4287 1362.34 -98.1038C1194.29 -167.78 987.527 -181.401 789.08 -147.072C590.633 -112.743 400.555 -30.473 265.868 91.5727C131.183 213.616 77.4373 352.273 99.274 477.771ZM265.516 91.1847C-4.03638 335.438 50.0856 646.486 386.401 785.93C722.716 925.375 1213.87 840.411 1483.42 596.159C1752.97 351.906 1698.85 40.8576 1362.54 -98.5871C1026.22 -238.032 535.068 -153.068 265.516 91.1847Z" fill="url(#paint1_diamond_5267_69113)" fill-opacity="0.8"/>
  <path fill-rule="evenodd" clip-rule="evenodd" d="M99.274 477.771C121.111 603.27 218.558 715.772 386.601 785.447C554.647 855.123 761.41 868.745 959.857 834.415C1158.3 800.086 1348.38 717.816 1483.07 595.771C1617.75 473.727 1671.5 335.071 1649.66 209.572C1627.83 84.0732 1530.38 -28.4287 1362.34 -98.1038C1194.29 -167.78 987.527 -181.401 789.08 -147.072C590.633 -112.743 400.555 -30.473 265.868 91.5727C131.183 213.616 77.4373 352.273 99.274 477.771ZM265.516 91.1847C-4.03638 335.438 50.0856 646.486 386.401 785.93C722.716 925.375 1213.87 840.411 1483.42 596.159C1752.97 351.906 1698.85 40.8576 1362.54 -98.5871C1026.22 -238.032 535.068 -153.068 265.516 91.1847Z" fill="url(#paint2_diamond_5267_69113)" fill-opacity="0.8"/>
  <path fill-rule="evenodd" clip-rule="evenodd" d="M-40.3099 488.652C-14.1825 638.81 98.7231 774.317 292.908 859.228C487.115 944.148 725.581 962.232 954.156 922.691C1182.73 883.151 1401.15 786.03 1555.32 640.845C1709.47 495.675 1770 330.166 1743.87 180.007C1717.75 29.849 1604.84 -105.658 1410.66 -190.569C1216.45 -275.489 977.982 -293.573 749.408 -254.032C520.834 -214.492 302.412 -117.371 148.244 27.8144C-5.90794 172.984 -66.4373 338.493 -40.3099 488.652ZM146.447 25.9092C-162.789 317.126 -97.6851 691.289 291.861 861.625C681.406 1031.96 1247.88 933.967 1557.12 642.75C1866.35 351.533 1801.25 -22.6299 1411.7 -192.966C1022.16 -363.302 455.683 -265.308 146.447 25.9092Z" fill="url(#paint3_linear_5267_69113)"/>
  <path fill-rule="evenodd" clip-rule="evenodd" d="M-40.3099 488.652C-14.1825 638.81 98.7231 774.317 292.908 859.228C487.115 944.148 725.581 962.232 954.156 922.691C1182.73 883.151 1401.15 786.03 1555.32 640.845C1709.47 495.675 1770 330.166 1743.87 180.007C1717.75 29.849 1604.84 -105.658 1410.66 -190.569C1216.45 -275.489 977.982 -293.573 749.408 -254.032C520.834 -214.492 302.412 -117.371 148.244 27.8144C-5.90794 172.984 -66.4373 338.493 -40.3099 488.652ZM146.447 25.9092C-162.789 317.126 -97.6851 691.289 291.861 861.625C681.406 1031.96 1247.88 933.967 1557.12 642.75C1866.35 351.533 1801.25 -22.6299 1411.7 -192.966C1022.16 -363.302 455.683 -265.308 146.447 25.9092Z" fill="url(#paint4_linear_5267_69113)" fill-opacity="0.2"/>
  <path fill-rule="evenodd" clip-rule="evenodd" d="M-30.423 424.431C-1.42952 591.062 114.443 742.904 310.771 840.243C507.13 937.598 746.639 961.901 975.16 922.369C1203.68 882.838 1420.98 779.512 1572.98 621.896C1724.95 464.305 1782.75 282.418 1753.76 115.787C1724.77 -50.8429 1608.89 -202.685 1412.57 -300.024C1216.21 -397.379 976.698 -421.682 748.176 -382.15C519.655 -342.619 302.352 -239.293 150.358 -81.677C-1.61243 75.9143 -59.4166 257.801 -30.423 424.431ZM148.472 -83.4936C-156.422 232.677 -84.2783 647.297 309.609 842.587C703.497 1037.88 1269.97 939.883 1574.86 623.712C1879.76 307.542 1807.62 -107.079 1413.73 -302.368C1019.84 -497.658 453.366 -399.664 148.472 -83.4936Z" fill="url(#paint5_linear_5267_69113)"/>
  <path d="M330.807 75.2933L328.437 57.0521L345.341 64.3462L347.71 82.5874L330.807 75.2933Z" fill="url(#paint6_linear_5267_69113)"/>
  <path d="M345.341 64.3497L328.437 57.0556L312.459 89.1143L345.341 64.3497Z" fill="url(#paint7_linear_5267_69113)" fill-opacity="0.6"/>
  <path d="M345.34 64.3497L347.731 82.5869L312.458 89.1143L345.34 64.3497Z" fill="url(#paint8_linear_5267_69113)"/>
  <path d="M83.3167 94.1808L74.4781 72.9612L97.2532 76.2143L106.092 97.4339L83.3167 94.1808Z" fill="url(#paint9_linear_5267_69113)"/>
  <path d="M97.2541 76.2184L74.479 72.9653L65.7233 116.863L97.2541 76.2184Z" fill="url(#paint10_linear_5267_69113)" fill-opacity="0.6"/>
  <path d="M97.2535 76.2187L106.116 97.4264L65.7227 116.863L97.2535 76.2187Z" fill="url(#paint11_linear_5267_69113)"/>
  <defs>
    <linearGradient id="paint0_linear_5267_69113" x1="753.33" y1="-352.561" x2="1158.4" y2="388.605" gradientUnits="userSpaceOnUse">
      <stop stop-color="#8FBCFF" stop-opacity="0.6"/>
      <stop offset="1" stop-color="#8FBCFF" stop-opacity="0"/>
    </linearGradient>
    <radialGradient id="paint1_diamond_5267_69113" cx="0" cy="0" r="1" gradientUnits="userSpaceOnUse" gradientTransform="translate(321 -17) rotate(94.3791) scale(785.794 690.58)">
      <stop stop-color="#8FBCFF" stop-opacity="0.6"/>
      <stop offset="0.29442" stop-color="#8FBCFF" stop-opacity="0.6"/>
      <stop offset="0.659427" stop-color="#FF48D7" stop-opacity="0.4"/>
      <stop offset="1" stop-opacity="0.2"/>
    </radialGradient>
    <radialGradient id="paint2_diamond_5267_69113" cx="0" cy="0" r="1" gradientUnits="userSpaceOnUse" gradientTransform="translate(321 -17) rotate(94.3791) scale(785.794 690.58)">
      <stop stop-color="#8FBCFF" stop-opacity="0.6"/>
      <stop offset="0.29442" stop-color="#8FBCFF" stop-opacity="0.6"/>
      <stop offset="0.659427" stop-color="#FF48D7" stop-opacity="0.4"/>
      <stop offset="1" stop-opacity="0.2"/>
    </radialGradient>
    <linearGradient id="paint3_linear_5267_69113" x1="693.392" y1="-575.965" x2="957.492" y2="-110.037" gradientUnits="userSpaceOnUse">
      <stop stop-color="white" stop-opacity="0.6"/>
      <stop offset="0.34375" stop-color="#8FBCFF" stop-opacity="0.6"/>
      <stop offset="1" stop-color="#8FBCFF" stop-opacity="0"/>
    </linearGradient>
    <linearGradient id="paint4_linear_5267_69113" x1="1251.35" y1="-236.181" x2="1160.06" y2="50.3291" gradientUnits="userSpaceOnUse">
      <stop stop-color="#FF48D7"/>
      <stop offset="0.234164" stop-color="white" stop-opacity="0.765836"/>
      <stop offset="1" stop-color="#FF48D7" stop-opacity="0"/>
    </linearGradient>
    <linearGradient id="paint5_linear_5267_69113" x1="737.827" y1="-441.639" x2="920.336" y2="-51.3599" gradientUnits="userSpaceOnUse">
      <stop stop-color="#8FBCFF" stop-opacity="0.6"/>
      <stop offset="1" stop-color="#8FBCFF" stop-opacity="0"/>
    </linearGradient>
    <linearGradient id="paint6_linear_5267_69113" x1="326.866" y1="68.2486" x2="349.281" y2="71.3941" gradientUnits="userSpaceOnUse">
      <stop stop-color="#6083FF"/>
      <stop offset="1" stop-color="#0C1E5E" stop-opacity="0"/>
    </linearGradient>
    <linearGradient id="paint7_linear_5267_69113" x1="333.025" y1="54.9768" x2="312.399" y2="89.0145" gradientUnits="userSpaceOnUse">
      <stop offset="0.170794" stop-color="#3D3BA9"/>
      <stop offset="0.537799" stop-color="#FF7BE2" stop-opacity="0.8"/>
      <stop offset="0.791667" stop-color="white"/>
    </linearGradient>
    <linearGradient id="paint8_linear_5267_69113" x1="312.572" y1="89.2653" x2="346.384" y2="80.454" gradientUnits="userSpaceOnUse">
      <stop stop-color="#3DDCFF"/>
      <stop offset="0.427083" stop-color="#9D50FF" stop-opacity="0.5"/>
      <stop offset="0.977116" stop-color="#3DDCFF"/>
    </linearGradient>
    <linearGradient id="paint9_linear_5267_69113" x1="76.2547" y1="86.9779" x2="104.316" y2="83.4212" gradientUnits="userSpaceOnUse">
      <stop stop-color="#6083FF"/>
      <stop offset="1" stop-color="#0C1E5E" stop-opacity="0"/>
    </linearGradient>
    <linearGradient id="paint10_linear_5267_69113" x1="79.3301" y1="68.9542" x2="65.6178" y2="116.762" gradientUnits="userSpaceOnUse">
      <stop offset="0.170794" stop-color="#3D3BA9"/>
      <stop offset="0.537799" stop-color="#FF7BE2" stop-opacity="0.8"/>
      <stop offset="0.791667" stop-color="white"/>
    </linearGradient>
    <linearGradient id="paint11_linear_5267_69113" x1="65.9096" y1="117.008" x2="103.793" y2="95.296" gradientUnits="userSpaceOnUse">
      <stop stop-color="#3DDCFF"/>
      <stop offset="0.427083" stop-color="#9D50FF" stop-opacity="0.5"/>
      <stop offset="0.977116" stop-color="#3DDCFF"/>
    </linearGradient>
  </defs>
</svg>
