<svg xmlns="http://www.w3.org/2000/svg" width="375" height="560" viewBox="0 0 375 560" fill="none">
  <g clip-path="url(#clip0_3452_58164)">
    <path fill-rule="evenodd" clip-rule="evenodd" d="M391.413 441.893C365.574 472.117 321.438 486.894 264.975 478.816C208.508 470.738 150.519 441.336 102.427 400.293C54.3355 359.249 16.2054 306.619 -0.60788 252.156C-17.4198 197.698 -9.712 151.831 16.1268 121.607C41.9656 91.3829 86.1024 76.6061 142.565 84.6837C199.032 92.7619 257.021 122.163 305.112 163.207C353.204 204.251 391.335 256.881 408.148 311.343C424.96 365.801 417.252 411.668 391.413 441.893ZM408.935 311.101C442.673 420.387 378.168 495.84 264.858 479.63C151.549 463.42 32.3435 361.685 -1.39464 252.399C-35.1328 143.112 29.3724 67.6593 142.682 83.8695C255.991 100.08 375.196 201.815 408.935 311.101Z" fill="url(#paint0_linear_3452_58164)"/>
    <path fill-rule="evenodd" clip-rule="evenodd" d="M398.375 434.763C372.35 465.206 327.959 480.01 271.343 471.91C214.726 463.81 156.625 434.341 108.461 393.236C60.2968 352.13 22.082 299.4 5.22407 244.793C-11.6336 190.187 -3.93861 144.066 22.0873 113.622C48.1132 83.1793 92.5035 68.3754 149.12 76.475C205.737 84.5747 263.838 114.044 312.002 155.149C360.166 196.255 398.381 248.985 415.239 303.592C432.096 358.198 424.401 404.32 398.375 434.763ZM415.396 303.544C449.134 412.83 384.629 488.283 271.32 472.073C158.01 455.863 38.8049 354.128 5.06672 244.841C-28.6715 135.555 35.8338 60.102 149.143 76.3121C262.452 92.5223 381.658 194.257 415.396 303.544Z" fill="url(#paint1_linear_3452_58164)"/>
    <path fill-rule="evenodd" clip-rule="evenodd" d="M426.748 458.975C395.608 495.4 343.349 513.947 277.22 505.777C211.084 497.606 143.694 464.26 88.2179 416.914C32.7416 369.568 -10.7575 308.277 -29.1741 244.287C-47.5888 180.305 -37.4232 125.832 -6.28333 89.4074C24.8565 52.9824 77.1156 34.4349 143.244 42.6052C209.38 50.7764 276.77 84.1222 332.247 131.468C387.723 178.814 431.222 240.106 449.639 304.095C468.053 368.078 457.888 422.55 426.748 458.975ZM450.43 303.868C487.371 432.22 409.777 522.983 277.119 506.593C144.462 490.203 6.97526 372.866 -29.9654 244.514C-66.9061 116.162 10.6877 25.3988 143.345 41.7889C276.003 58.179 413.489 175.516 450.43 303.868Z" fill="url(#paint2_linear_3452_58164)"/>
    <path fill-rule="evenodd" clip-rule="evenodd" d="M426.748 458.975C395.608 495.4 343.349 513.947 277.22 505.777C211.084 497.606 143.694 464.26 88.2179 416.914C32.7416 369.568 -10.7575 308.277 -29.1741 244.287C-47.5888 180.305 -37.4232 125.832 -6.28333 89.4074C24.8565 52.9824 77.1156 34.4349 143.244 42.6052C209.38 50.7764 276.77 84.1222 332.247 131.468C387.723 178.814 431.222 240.106 449.639 304.095C468.053 368.078 457.888 422.55 426.748 458.975ZM450.43 303.868C487.371 432.22 409.777 522.983 277.119 506.593C144.462 490.203 6.97526 372.866 -29.9654 244.514C-66.9061 116.162 10.6877 25.3988 143.345 41.7889C276.003 58.179 413.489 175.516 450.43 303.868Z" fill="url(#paint3_linear_3452_58164)" fill-opacity="0.2"/>
    <path fill-rule="evenodd" clip-rule="evenodd" d="M442.003 441.132C407.447 481.553 351.766 504.043 283.066 498.89C214.354 493.737 145.685 461.906 90.2216 414.572C34.7582 367.237 -7.44345 304.446 -23.2792 237.443C-39.1125 170.45 -25.5843 111.985 8.97158 71.5647C43.5274 31.144 99.2079 8.65393 167.908 13.8062C236.62 18.9593 305.289 50.7903 360.753 98.1251C416.216 145.46 458.418 208.251 474.253 275.254C490.087 342.246 476.559 400.711 442.003 441.132ZM475.055 275.065C506.821 409.47 420.837 510.048 283.004 499.711C145.172 489.374 7.68526 372.037 -24.0805 237.632C-55.8463 103.226 30.1377 2.64915 167.97 12.986C305.803 23.3229 443.289 140.66 475.055 275.065Z" fill="url(#paint4_linear_3452_58164)"/>
    <path d="M299.74 271.689L299.531 269.025L296.865 269.234L297.074 271.898L299.74 271.689Z" fill="#4D88FF" fill-opacity="0.5"/>
    <path d="M299.632 163.9L299.545 162.801L298.446 162.888L298.532 163.986L299.632 163.9Z" fill="#4D88FF"/>
    <path d="M82.2128 143.581L82.3263 145.023L80.8826 145.137L80.769 143.694L82.2128 143.581Z" fill="#4D88FF"/>
    <path d="M259.903 135.004L259.772 133.342L258.11 133.473L258.241 135.134L259.903 135.004Z" fill="#4D88FF"/>
    <path d="M255.117 159.286L255.039 158.301L254.054 158.379L254.132 159.363L255.117 159.286Z" fill="#4D88FF"/>
    <path d="M250.911 317.075L250.701 314.411L248.035 314.62L248.245 317.284L250.911 317.075Z" fill="#4D88FF"/>
    <path d="M328.489 364.566L328.28 361.902L325.613 362.111L325.823 364.775L328.489 364.566Z" fill="#4D88FF" fill-opacity="0.5"/>
    <path d="M350.083 282.478L349.936 280.616L348.073 280.762L348.219 282.624L350.083 282.478Z" fill="#4D88FF"/>
    <path d="M130.867 401.647L130.595 398.184L127.129 398.456L127.401 401.919L130.867 401.647Z" fill="#4D88FF" fill-opacity="0.5"/>
    <path d="M28.8723 151.806L29.1458 155.28L25.6681 155.554L25.3946 152.079L28.8723 151.806Z" fill="#4D88FF" fill-opacity="0.5"/>
    <path d="M35.8676 471.231L35.5765 467.534L31.8757 467.825L32.1668 471.522L35.8676 471.231Z" fill="#4D88FF" fill-opacity="0.5"/>
    <path d="M17.2345 380.827L17.0307 378.238L14.4399 378.442L14.6436 381.03L17.2345 380.827Z" fill="#4D88FF" fill-opacity="0.5"/>
    <g opacity="0.2">
      <path d="M94.0266 258.528L97.0734 257.621L96.1651 254.576L93.1183 255.484L94.0266 258.528Z" fill="#4D88FF" fill-opacity="0.5"/>
      <path d="M154.811 216.299L157.291 216.104L157.096 213.626L154.616 213.821L154.811 216.299Z" fill="#4D88FF"/>
      <path d="M259.238 270.766L256.374 271.619L255.521 268.758L258.384 267.905L259.238 270.766Z" fill="#4D88FF" fill-opacity="0.5"/>
      <path d="M242.778 197.661L245.824 196.753L244.916 193.709L241.869 194.617L242.778 197.661Z" fill="#4D88FF" fill-opacity="0.5"/>
      <path d="M28.9001 231.891L31.9469 230.983L31.0386 227.939L27.9919 228.847L28.9001 231.891Z" fill="#4D88FF" fill-opacity="0.5"/>
      <path d="M144.857 147.005L147.148 146.825L146.968 144.535L144.677 144.716L144.857 147.005Z" fill="#4D88FF" fill-opacity="0.5"/>
      <path d="M65.3241 302.129L67.4557 301.495L66.8202 299.365L64.6886 300L65.3241 302.129Z" fill="#4D88FF" fill-opacity="0.5"/>
      <path d="M36.2565 299.022L40.2214 297.841L39.0395 293.879L35.0745 295.06L36.2565 299.022Z" fill="#4D88FF" fill-opacity="0.5"/>
      <path d="M277.091 274.589L276.951 272.815L275.176 272.954L275.315 274.728L277.091 274.589Z" fill="#4D88FF" fill-opacity="0.6"/>
      <path d="M292.752 391.939L292.595 389.941L290.595 390.098L290.752 392.096L292.752 391.939Z" fill="#4D88FF"/>
      <path d="M359.963 251.667L360.136 253.874L357.927 254.047L357.754 251.841L359.963 251.667Z" fill="#4D88FF"/>
      <path d="M315.664 220.316L315.479 217.968L313.129 218.152L313.313 220.501L315.664 220.316Z" fill="#4D88FF"/>
      <path d="M143.258 312.524L143.074 310.175L140.723 310.36L140.908 312.708L143.258 312.524Z" fill="#4D88FF" fill-opacity="0.5"/>
      <path d="M204.568 340.669L204.466 339.382L203.178 339.483L203.279 340.771L204.568 340.669Z" fill="#4D88FF" fill-opacity="0.5"/>
      <path d="M246.922 420.303L248.13 418.28L246.105 417.073L244.898 419.096L246.922 420.303Z" fill="#4D88FF" fill-opacity="0.5"/>
      <path d="M271.038 366.335L270.909 364.696L269.268 364.825L269.397 366.464L271.038 366.335Z" fill="#4D88FF" fill-opacity="0.6"/>
      <path d="M254.882 379.504L254.534 375.086L250.112 375.433L250.46 379.852L254.882 379.504Z" fill="#4D88FF" fill-opacity="0.5"/>
      <g opacity="0.5">
        <path d="M366.015 211.536L365.876 209.762L364.1 209.902L364.239 211.676L366.015 211.536Z" fill="#4D88FF" fill-opacity="0.6"/>
        <path d="M232.184 249.471L231.999 247.123L229.649 247.308L229.833 249.656L232.184 249.471Z" fill="#4D88FF" fill-opacity="0.5"/>
        <path d="M293.492 277.617L293.391 276.33L292.102 276.431L292.204 277.719L293.492 277.617Z" fill="#4D88FF" fill-opacity="0.5"/>
        <path d="M335.846 357.251L337.053 355.228L335.029 354.021L333.821 356.044L335.846 357.251Z" fill="#4D88FF" fill-opacity="0.5"/>
        <path d="M359.963 303.283L359.833 301.643L358.193 301.772L358.322 303.412L359.963 303.283Z" fill="#4D88FF" fill-opacity="0.6"/>
        <path d="M343.806 316.454L343.459 312.036L339.037 312.383L339.384 316.801L343.806 316.454Z" fill="#4D88FF" fill-opacity="0.5"/>
      </g>
    </g>
    <path d="M331.942 131.677L335.343 114.593L318.91 120.407L315.509 137.491L331.942 131.677Z" fill="url(#paint5_linear_3452_58164)"/>
    <path d="M318.91 120.41L335.343 114.596L348.394 145.904L318.91 120.41Z" fill="url(#paint6_linear_3452_58164)" fill-opacity="0.6"/>
    <path d="M318.911 120.41L315.49 137.488L348.395 145.904L318.911 120.41Z" fill="url(#paint7_linear_3452_58164)"/>
    <path d="M274.201 42.3211L272.781 24.9608L258.574 35.0544L259.994 52.4148L274.201 42.3211Z" fill="url(#paint8_linear_3452_58164)"/>
    <path d="M258.574 35.0575L272.781 24.9639L293.928 51.4955L258.574 35.0575Z" fill="url(#paint9_linear_3452_58164)" fill-opacity="0.6"/>
    <path d="M258.577 35.0575L259.977 52.4182L293.931 51.4955L258.577 35.0575Z" fill="url(#paint10_linear_3452_58164)"/>
  </g>
  <defs>
    <linearGradient id="paint0_linear_3452_58164" x1="354.615" y1="105.302" x2="126.226" y2="240.792" gradientUnits="userSpaceOnUse">
      <stop stop-color="#8FBCFF" stop-opacity="0.6"/>
      <stop offset="1" stop-color="#8FBCFF" stop-opacity="0"/>
    </linearGradient>
    <linearGradient id="paint1_linear_3452_58164" x1="320.963" y1="144.668" x2="111.142" y2="366.185" gradientUnits="userSpaceOnUse">
      <stop stop-color="#8FBCFF" stop-opacity="0.6"/>
      <stop offset="1" stop-color="#8FBCFF" stop-opacity="0"/>
    </linearGradient>
    <linearGradient id="paint2_linear_3452_58164" x1="399.009" y1="53.3745" x2="252.877" y2="137.033" gradientUnits="userSpaceOnUse">
      <stop stop-color="white" stop-opacity="0.6"/>
      <stop offset="0.34375" stop-color="#8FBCFF" stop-opacity="0.6"/>
      <stop offset="1" stop-color="#8FBCFF" stop-opacity="0"/>
    </linearGradient>
    <linearGradient id="paint3_linear_3452_58164" x1="193.64" y1="55.8124" x2="172.388" y2="147.943" gradientUnits="userSpaceOnUse">
      <stop stop-color="#FF48D7"/>
      <stop offset="0.234164" stop-color="white" stop-opacity="0.765836"/>
      <stop offset="1" stop-color="#FF48D7" stop-opacity="0"/>
    </linearGradient>
    <linearGradient id="paint4_linear_3452_58164" x1="373.089" y1="83.6942" x2="261.151" y2="159.977" gradientUnits="userSpaceOnUse">
      <stop stop-color="#8FBCFF" stop-opacity="0.6"/>
      <stop offset="1" stop-color="#8FBCFF" stop-opacity="0"/>
    </linearGradient>
    <linearGradient id="paint5_linear_3452_58164" x1="336.114" y1="125.272" x2="314.738" y2="126.814" gradientUnits="userSpaceOnUse">
      <stop stop-color="#6083FF"/>
      <stop offset="1" stop-color="#0C1E5E" stop-opacity="0"/>
    </linearGradient>
    <linearGradient id="paint6_linear_3452_58164" x1="331.142" y1="112.34" x2="348.461" y2="145.812" gradientUnits="userSpaceOnUse">
      <stop offset="0.170794" stop-color="#3D3BA9"/>
      <stop offset="0.537799" stop-color="#FF7BE2" stop-opacity="0.8"/>
      <stop offset="0.791667" stop-color="white"/>
    </linearGradient>
    <linearGradient id="paint7_linear_3452_58164" x1="348.278" y1="146.04" x2="316.897" y2="135.562" gradientUnits="userSpaceOnUse">
      <stop stop-color="#3DDCFF"/>
      <stop offset="0.427083" stop-color="#9D50FF" stop-opacity="0.5"/>
      <stop offset="0.977116" stop-color="#3DDCFF"/>
    </linearGradient>
    <linearGradient id="paint8_linear_3452_58164" x1="276.454" y1="35.0189" x2="256.326" y2="42.3696" gradientUnits="userSpaceOnUse">
      <stop stop-color="#6083FF"/>
      <stop offset="1" stop-color="#0C1E5E" stop-opacity="0"/>
    </linearGradient>
    <linearGradient id="paint9_linear_3452_58164" x1="268.121" y1="23.9451" x2="293.962" y2="51.3932" gradientUnits="userSpaceOnUse">
      <stop offset="0.170794" stop-color="#3D3BA9"/>
      <stop offset="0.537799" stop-color="#FF7BE2" stop-opacity="0.8"/>
      <stop offset="0.791667" stop-color="white"/>
    </linearGradient>
    <linearGradient id="paint10_linear_3452_58164" x1="293.855" y1="51.6578" x2="260.801" y2="50.1974" gradientUnits="userSpaceOnUse">
      <stop stop-color="#3DDCFF"/>
      <stop offset="0.427083" stop-color="#9D50FF" stop-opacity="0.5"/>
      <stop offset="0.977116" stop-color="#3DDCFF"/>
    </linearGradient>
    <clipPath id="clip0_3452_58164">
      <rect width="659" height="560" fill="white" transform="matrix(-1 0 0 1 543 0)"/>
    </clipPath>
  </defs>
</svg>
