<svg id="contact-bg" xmlns="http://www.w3.org/2000/svg" width="746" height="907" viewBox="0 0 746 907" fill="none">
  <style type="text/css">
    #contact-bg {
    animation-name: pulse;
    animation-duration: 5s;
    animation-iteration-count :infinite; animation-direction: alternate;}

    @keyframes pulse {
    from { }
    to { transform: translate(50px , 50px) }
    }
  </style>
  <path fill-rule="evenodd" clip-rule="evenodd" d="M147.689 754.695C181.792 813.883 240.045 842.82 314.565 827.002C389.092 811.182 465.627 753.605 529.1 673.23C592.572 592.854 642.898 489.789 665.088 383.136C687.277 276.491 677.104 186.67 643.001 127.482C608.899 68.2939 550.646 39.3565 476.125 55.1748C401.598 70.9944 325.064 128.571 261.591 208.947C198.118 289.322 147.793 392.388 125.602 499.041C103.414 605.686 113.587 695.507 147.689 754.695ZM124.564 498.566C80.0356 712.581 165.171 860.34 314.719 828.596C464.268 796.852 621.598 597.625 666.127 383.61C710.655 169.596 625.519 21.8362 475.971 53.5804C326.423 85.3247 169.092 284.552 124.564 498.566Z" fill="url(#paint0_linear_2781_61026)"/>
  <!-- <path fill-rule="evenodd" clip-rule="evenodd" d="M138.499 740.732C172.849 800.349 231.436 829.339 306.159 813.478C380.884 797.616 457.567 739.907 521.135 659.41C584.703 578.914 635.14 475.652 657.39 368.716C679.639 261.781 669.483 171.462 635.133 111.845C600.784 52.2289 542.196 23.2384 467.473 39.0998C392.748 54.9614 316.065 112.671 252.497 193.167C188.929 273.664 138.492 376.925 116.242 483.862C93.9933 590.797 104.149 681.116 138.499 740.732ZM116.035 483.767C71.5063 697.782 156.642 845.541 306.19 813.797C455.739 782.053 613.069 582.825 657.597 368.811C702.126 154.796 616.99 7.03664 467.442 38.7809C317.894 70.5252 160.563 269.752 116.035 483.767Z" fill="url(#paint1_linear_2781_61026)"/> -->
  <path fill-rule="evenodd" clip-rule="evenodd" d="M101.053 788.146C142.152 859.477 211.125 895.799 298.403 879.799C385.691 863.797 474.634 798.496 547.853 705.779C621.072 613.062 678.483 493.035 702.79 367.725C727.094 242.428 713.677 135.756 672.578 64.4248C631.479 -6.90591 562.506 -43.2275 475.228 -27.2276C387.94 -11.226 298.997 54.0749 225.778 146.792C152.559 239.509 95.148 359.536 70.8412 484.847C46.5372 610.143 59.9539 716.816 101.053 788.146ZM69.7969 484.402C21.0416 735.753 123.452 913.494 298.536 881.397C473.621 849.301 655.079 619.521 703.834 368.17C752.589 116.818 650.179 -60.9227 475.095 -28.8261C300.01 3.27046 118.552 233.05 69.7969 484.402Z" fill="url(#paint2_linear_2781_61026)"/>
  <path fill-rule="evenodd" clip-rule="evenodd" d="M101.053 788.146C142.152 859.477 211.125 895.799 298.403 879.799C385.691 863.797 474.634 798.496 547.853 705.779C621.072 613.062 678.483 493.035 702.79 367.725C727.094 242.428 713.677 135.756 672.578 64.4248C631.479 -6.90591 562.506 -43.2275 475.228 -27.2276C387.94 -11.226 298.997 54.0749 225.778 146.792C152.559 239.509 95.148 359.536 70.8412 484.847C46.5372 610.143 59.9539 716.816 101.053 788.146ZM69.7969 484.402C21.0416 735.753 123.452 913.494 298.536 881.397C473.621 849.301 655.079 619.521 703.834 368.17C752.589 116.818 650.179 -60.9227 475.095 -28.8261C300.01 3.27046 118.552 233.05 69.7969 484.402Z" fill="url(#paint3_linear_2781_61026)" fill-opacity="0.2"/>
  <path fill-rule="evenodd" clip-rule="evenodd" d="M80.9192 753.205C126.527 832.361 200.015 876.403 290.688 866.314C381.375 856.222 472.006 793.888 545.208 701.192C618.41 608.497 674.109 485.534 695.01 354.322C715.907 223.131 698.052 108.64 652.444 29.4841C606.837 -49.6715 533.348 -93.7138 442.675 -83.6242C351.988 -73.5329 261.357 -11.1984 188.155 81.4971C114.953 174.193 59.2543 297.155 38.3539 428.367C17.4567 559.558 35.3116 674.05 80.9192 753.205ZM37.2963 427.997C-4.62899 691.202 108.855 888.162 290.769 867.92C472.684 847.677 654.142 617.897 696.067 354.692C737.993 91.4871 624.509 -105.473 442.594 -85.2303C260.68 -64.9877 79.2215 164.792 37.2963 427.997Z" fill="url(#paint4_linear_2781_61026)"/>
  <defs>
    <linearGradient id="paint0_linear_2781_61026" x1="196.256" y1="95.5514" x2="547.607" y2="236.031" gradientUnits="userSpaceOnUse">
      <stop stop-color="#8FBCFF" stop-opacity="0.6"/>
      <stop offset="1" stop-color="#8FBCFF" stop-opacity="0"/>
    </linearGradient>
    <linearGradient id="paint1_linear_2781_61026" x1="240.67" y1="172.642" x2="629.433" y2="449.261" gradientUnits="userSpaceOnUse">
      <stop stop-color="#8FBCFF" stop-opacity="0.6"/>
      <stop offset="1" stop-color="#8FBCFF" stop-opacity="0"/>
    </linearGradient>
    <linearGradient id="paint2_linear_2781_61026" x1="137.663" y1="-6.13802" x2="360.56" y2="79.8629" gradientUnits="userSpaceOnUse">
      <stop stop-color="white" stop-opacity="0.6"/>
      <stop offset="0.34375" stop-color="#8FBCFF" stop-opacity="0.6"/>
      <stop offset="1" stop-color="#8FBCFF" stop-opacity="0"/>
    </linearGradient>
    <linearGradient id="paint3_linear_2781_61026" x1="408.714" y1="-1.36396" x2="466.932" y2="168.729" gradientUnits="userSpaceOnUse">
      <stop stop-color="#FF48D7"/>
      <stop offset="0.234164" stop-color="white" stop-opacity="0.765836"/>
      <stop offset="1" stop-color="#FF48D7" stop-opacity="0"/>
    </linearGradient>
    <linearGradient id="paint4_linear_2781_61026" x1="171.873" y1="53.2372" x2="350.535" y2="135.294" gradientUnits="userSpaceOnUse">
      <stop stop-color="#8FBCFF" stop-opacity="0.6"/>
      <stop offset="1" stop-color="#8FBCFF" stop-opacity="0"/>
    </linearGradient>
  </defs>
</svg>
