<svg width="856" height="710" viewBox="0 0 856 710" fill="none" xmlns="http://www.w3.org/2000/svg">
<path d="M404.605 191.82L404.882 188.304L408.401 188.581L408.124 192.096L404.605 191.82Z" fill="#4D88FF" fill-opacity="0.5"/>
<path d="M404.749 49.5771L404.863 48.1275L406.314 48.2415L406.2 49.6911L404.749 49.5771Z" fill="#4D88FF"/>
<path d="M691.703 22.7628L691.553 24.6664L693.459 24.8161L693.609 22.9126L691.703 22.7628Z" fill="#4D88FF"/>
<path d="M457.185 11.4442L457.357 9.25204L459.552 9.42445L459.379 11.6167L457.185 11.4442Z" fill="#4D88FF"/>
<path d="M463.501 43.4878L463.603 42.1885L464.904 42.2907L464.801 43.5899L463.501 43.4878Z" fill="#4D88FF"/>
<path d="M469.052 251.713L469.329 248.197L472.847 248.474L472.571 251.989L469.052 251.713Z" fill="#4D88FF"/>
<path d="M366.662 314.384L366.939 310.869L370.458 311.145L370.181 314.661L366.662 314.384Z" fill="#4D88FF" fill-opacity="0.5"/>
<path d="M338.164 206.057L338.357 203.6L340.817 203.793L340.623 206.25L338.164 206.057Z" fill="#4D88FF"/>
<path d="M627.49 363.318L627.85 358.748L632.424 359.108L632.065 363.678L627.49 363.318Z" fill="#4D88FF" fill-opacity="0.5"/>
<path d="M762.104 33.6166L761.743 38.2022L766.333 38.5628L766.694 33.9773L762.104 33.6166Z" fill="#4D88FF" fill-opacity="0.5"/>
<path d="M752.871 455.144L753.255 450.265L758.14 450.649L757.755 455.528L752.871 455.144Z" fill="#4D88FF" fill-opacity="0.5"/>
<path d="M777.463 335.842L777.732 332.426L781.151 332.695L780.882 336.111L777.463 335.842Z" fill="#4D88FF" fill-opacity="0.5"/>
<path d="M676.113 174.452L672.092 173.255L673.291 169.237L677.312 170.435L676.113 174.452Z" fill="#4D88FF" fill-opacity="0.5"/>
<path d="M595.888 118.724L592.615 118.467L592.873 115.198L596.145 115.455L595.888 118.724Z" fill="#4D88FF"/>
<path d="M458.063 190.601L461.843 191.727L462.969 187.952L459.19 186.826L458.063 190.601Z" fill="#4D88FF" fill-opacity="0.5"/>
<path d="M479.79 94.1289L475.769 92.9313L476.968 88.914L480.989 90.1116L479.79 94.1289Z" fill="#4D88FF" fill-opacity="0.5"/>
<path d="M762.069 139.3L758.048 138.103L759.247 134.086L763.268 135.283L762.069 139.3Z" fill="#4D88FF" fill-opacity="0.5"/>
<path d="M609.026 27.2816L606.002 27.044L606.24 24.0225L609.264 24.2602L609.026 27.2816Z" fill="#4D88FF" fill-opacity="0.5"/>
<path d="M713.996 231.99L711.183 231.152L712.021 228.342L714.835 229.18L713.996 231.99Z" fill="#4D88FF" fill-opacity="0.5"/>
<path d="M752.359 227.889L747.126 226.331L748.686 221.103L753.919 222.661L752.359 227.889Z" fill="#4D88FF" fill-opacity="0.5"/>
<path d="M434.502 195.647L434.686 193.306L437.03 193.49L436.846 195.831L434.502 195.647Z" fill="#4D88FF" fill-opacity="0.6"/>
<path d="M413.831 350.508L414.039 347.87L416.679 348.078L416.471 350.715L413.831 350.508Z" fill="#4D88FF"/>
<path d="M325.126 165.399L324.897 168.311L327.812 168.54L328.041 165.628L325.126 165.399Z" fill="#4D88FF"/>
<path d="M383.593 124.026L383.837 120.927L386.939 121.171L386.695 124.27L383.593 124.026Z" fill="#4D88FF"/>
<path d="M611.137 245.707L611.381 242.608L614.483 242.852L614.239 245.951L611.137 245.707Z" fill="#4D88FF" fill-opacity="0.5"/>
<path d="M530.219 282.85L530.352 281.151L532.053 281.285L531.919 282.983L530.219 282.85Z" fill="#4D88FF" fill-opacity="0.5"/>
<path d="M474.318 387.938L472.724 385.268L475.397 383.676L476.991 386.345L474.318 387.938Z" fill="#4D88FF" fill-opacity="0.5"/>
<path d="M442.489 316.719L442.66 314.556L444.825 314.726L444.655 316.89L442.489 316.719Z" fill="#4D88FF" fill-opacity="0.6"/>
<path d="M463.813 334.097L464.272 328.267L470.109 328.725L469.65 334.556L463.813 334.097Z" fill="#4D88FF" fill-opacity="0.5"/>
<g opacity="0.5">
<path d="M317.138 112.44L317.322 110.099L319.666 110.283L319.481 112.624L317.138 112.44Z" fill="#4D88FF" fill-opacity="0.6"/>
<path d="M296.467 267.301L296.674 264.663L299.315 264.87L299.107 267.508L296.467 267.301Z" fill="#4D88FF"/>
<path d="M207.762 82.1945L207.532 85.1068L210.448 85.3358L210.677 82.4235L207.762 82.1945Z" fill="#4D88FF"/>
<path d="M266.228 40.8196L266.471 37.7206L269.574 37.9644L269.33 41.0634L266.228 40.8196Z" fill="#4D88FF"/>
<path d="M493.772 162.5L494.016 159.401L497.118 159.645L496.874 162.744L493.772 162.5Z" fill="#4D88FF" fill-opacity="0.5"/>
<path d="M412.854 199.643L412.988 197.944L414.689 198.078L414.555 199.777L412.854 199.643Z" fill="#4D88FF" fill-opacity="0.5"/>
<path d="M356.955 304.731L355.361 302.061L358.034 300.469L359.627 303.139L356.955 304.731Z" fill="#4D88FF" fill-opacity="0.5"/>
<path d="M325.126 233.513L325.296 231.349L327.462 231.519L327.292 233.683L325.126 233.513Z" fill="#4D88FF" fill-opacity="0.6"/>
<path d="M346.449 250.894L346.908 245.063L352.745 245.521L352.286 251.352L346.449 250.894Z" fill="#4D88FF" fill-opacity="0.5"/>
</g>
</svg>
