<svg width="637"
     height="739" viewBox="0 0 637 739" fill="none"
     xmlns="http://www.w3.org/2000/svg"
     xmlns:xlink="http://www.w3.org/1999/xlink"
>
  <g id="Frame 9">
    <path id="Ellipse 373 (Stroke)" fill-rule="evenodd" clip-rule="evenodd" d="M209.346 583.14C243.449 623.026 301.701 642.526 376.222 631.866C450.749 621.206 527.283 582.406 590.756 528.243C654.229 474.08 704.554 404.627 726.745 332.756C748.934 260.891 738.761 200.363 704.658 160.478C670.555 120.593 612.302 101.093 537.782 111.752C463.255 122.413 386.721 161.212 323.248 215.375C259.775 269.538 209.45 338.991 187.259 410.862C165.07 482.727 175.243 543.255 209.346 583.14ZM186.221 410.542C141.692 554.761 226.828 654.332 376.376 632.941C525.924 611.549 683.255 477.295 727.783 333.076C772.312 188.857 687.176 89.2863 537.628 110.678C388.079 132.07 230.749 266.323 186.221 410.542Z" fill="url(#paint0_linear_670_13674)"/>
    <path id="Ellipse 375 (Stroke)" fill-rule="evenodd" clip-rule="evenodd" d="M200.156 573.732C234.505 613.906 293.093 633.441 367.816 622.753C442.541 612.064 519.224 573.175 582.792 518.931C646.36 464.686 696.797 395.101 719.047 323.039C741.296 250.979 731.14 190.115 696.79 149.941C662.441 109.767 603.853 90.2312 529.13 100.92C454.405 111.608 377.722 150.497 314.154 204.742C250.586 258.986 200.149 328.572 177.899 400.633C155.65 472.694 165.806 533.558 200.156 573.732ZM177.692 400.569C133.163 544.788 218.299 644.359 367.847 622.968C517.396 601.576 674.726 467.322 719.254 323.103C763.783 178.884 678.647 79.3132 529.099 100.705C379.55 122.097 222.22 256.35 177.692 400.569Z" fill="url(#paint1_linear_670_13674)"/>
    <g>
      <path fill-rule="evenodd" id="path_374" clip-rule="evenodd" d="M162.71 605.683C203.809 653.751 272.782 678.227 360.06 667.445C447.348 656.662 536.291 612.657 609.51 550.178C682.729 487.698 740.14 406.815 764.446 322.371C788.751 237.937 775.334 166.054 734.235 117.986C693.136 69.9177 624.163 45.4416 536.885 56.2234C449.597 67.0065 360.654 111.011 287.435 173.491C214.216 235.97 156.805 316.853 132.498 401.297C108.194 485.731 121.611 557.615 162.71 605.683ZM131.453 400.997C82.6982 570.376 185.108 690.151 360.193 668.522C535.278 646.893 716.736 492.05 765.491 322.671C814.246 153.292 711.836 33.5172 536.751 55.1463C361.667 76.7753 180.209 231.618 131.453 400.997Z" fill="url(#paint2_linear_670_13674)"/>
      <path fill-rule="evenodd" clip-rule="evenodd" d="M162.71 605.683C203.809 653.751 272.782 678.227 360.06 667.445C447.348 656.662 536.291 612.657 609.51 550.178C682.729 487.698 740.14 406.815 764.446 322.371C788.751 237.937 775.334 166.054 734.235 117.986C693.136 69.9177 624.163 45.4416 536.885 56.2234C449.597 67.0065 360.654 111.011 287.435 173.491C214.216 235.97 156.805 316.853 132.498 401.297C108.194 485.731 121.611 557.615 162.71 605.683ZM131.453 400.997C82.6982 570.376 185.108 690.151 360.193 668.522C535.278 646.893 716.736 492.05 765.491 322.671C814.246 153.292 711.836 33.5172 536.751 55.1463C361.667 76.7753 180.209 231.618 131.453 400.997Z" fill="url(#paint3_linear_670_13674)" fill-opacity="0.2"/>
    </g>
    <path id="path_376" fill-rule="evenodd" clip-rule="evenodd" d="M142.576 582.137C188.184 635.478 261.672 665.157 352.345 658.357C443.032 651.557 533.663 609.552 606.865 547.087C680.067 484.622 735.766 401.76 756.666 313.34C777.564 224.933 759.709 147.781 714.101 94.4399C668.493 41.099 595.005 11.4201 504.332 18.2193C413.645 25.0195 323.014 67.0251 249.812 129.49C176.61 191.955 120.911 274.817 100.011 363.237C79.1135 451.643 96.9683 528.796 142.576 582.137ZM98.953 362.988C57.0277 540.355 170.512 673.081 352.426 659.44C534.341 645.799 715.799 490.956 757.724 313.589C799.649 136.222 686.165 3.49596 504.251 17.1369C322.336 30.7779 140.878 185.62 98.953 362.988Z" fill="url(#paint4_linear_670_13674)"/>
    <g id="star_group_1193">
      <g id="star_1176">
        <path id="Rectangle 834" d="M330.336 305.196L330.613 301.68L334.132 301.957L333.855 305.472L330.336 305.196Z" fill="#4D88FF" fill-opacity="0.5"/>
        <g id="star_1174">
          <path id="Rectangle 831" d="M330.48 162.953L330.594 161.503L332.045 161.617L331.931 163.067L330.48 162.953Z" fill="#4D88FF"/>
          <path id="Rectangle 832" d="M617.434 136.139L617.284 138.042L619.19 138.192L619.339 136.288L617.434 136.139Z" fill="#4D88FF"/>
          <path id="Rectangle 833" d="M382.916 124.82L383.088 122.628L385.282 122.8L385.11 124.993L382.916 124.82Z" fill="#4D88FF"/>
          <path id="Rectangle 839" d="M389.232 156.864L389.334 155.564L390.634 155.667L390.532 156.966L389.232 156.864Z" fill="#4D88FF"/>
          <path id="Rectangle 835" d="M394.782 365.089L395.059 361.573L398.578 361.85L398.301 365.365L394.782 365.089Z" fill="#4D88FF"/>
          <path id="Rectangle 836" d="M292.393 427.76L292.669 424.244L296.188 424.521L295.911 428.036L292.393 427.76Z" fill="#4D88FF" fill-opacity="0.5"/>
          <path id="Rectangle 837" d="M263.894 319.433L264.088 316.976L266.547 317.169L266.354 319.626L263.894 319.433Z" fill="#4D88FF"/>
          <path id="Rectangle 838" d="M553.221 476.694L553.58 472.124L558.155 472.484L557.795 477.054L553.221 476.694Z" fill="#4D88FF" fill-opacity="0.5"/>
        </g>
      </g>
      <g id="star_group_1177">
        <path id="Rectangle 834_2" d="M601.844 287.828L597.823 286.631L599.021 282.613L603.043 283.811L601.844 287.828Z" fill="#4D88FF" fill-opacity="0.5"/>
        <g id="star_1174_2">
          <path id="Rectangle 831_2" d="M521.618 232.1L518.346 231.843L518.603 228.574L521.876 228.831L521.618 232.1Z" fill="#4D88FF"/>
          <path id="Rectangle 832_2" d="M383.794 303.977L387.574 305.103L388.7 301.327L384.921 300.202L383.794 303.977Z" fill="#4D88FF" fill-opacity="0.5"/>
          <path id="Rectangle 833_2" d="M405.52 207.505L401.499 206.307L402.698 202.29L406.719 203.487L405.52 207.505Z" fill="#4D88FF" fill-opacity="0.5"/>
          <path id="Rectangle 836_2" d="M534.756 140.657L531.732 140.42L531.97 137.398L534.994 137.636L534.756 140.657Z" fill="#4D88FF" fill-opacity="0.5"/>
          <path id="Rectangle 837_2" d="M639.726 345.366L636.913 344.528L637.751 341.718L640.565 342.556L639.726 345.366Z" fill="#4D88FF" fill-opacity="0.5"/>
        </g>
        <g id="star_1175">
          <path id="Rectangle 831_3" d="M360.233 309.023L360.417 306.681L362.761 306.865L362.576 309.207L360.233 309.023Z" fill="#4D88FF" fill-opacity="0.6"/>
          <path id="Rectangle 839_2" d="M339.561 463.883L339.769 461.246L342.409 461.453L342.202 464.091L339.561 463.883Z" fill="#4D88FF"/>
          <path id="Rectangle 832_3" d="M250.856 278.774L250.627 281.687L253.542 281.916L253.772 279.003L250.856 278.774Z" fill="#4D88FF"/>
          <path id="Rectangle 833_3" d="M309.323 237.402L309.567 234.303L312.669 234.547L312.425 237.646L309.323 237.402Z" fill="#4D88FF"/>
          <path id="Rectangle 835_2" d="M536.867 359.083L537.111 355.984L540.213 356.228L539.969 359.327L536.867 359.083Z" fill="#4D88FF" fill-opacity="0.5"/>
          <path id="Rectangle 840" d="M455.949 396.226L456.083 394.527L457.783 394.661L457.65 396.359L455.949 396.226Z" fill="#4D88FF" fill-opacity="0.5"/>
          <path id="Rectangle 836_3" d="M400.049 501.314L398.455 498.644L401.128 497.051L402.722 499.721L400.049 501.314Z" fill="#4D88FF" fill-opacity="0.5"/>
          <path id="Rectangle 837_3" d="M368.22 430.095L368.391 427.932L370.556 428.102L370.386 430.265L368.22 430.095Z" fill="#4D88FF" fill-opacity="0.6"/>
          <path id="Rectangle 838_2" d="M389.544 447.473L390.003 441.643L395.839 442.101L395.38 447.932L389.544 447.473Z" fill="#4D88FF" fill-opacity="0.5"/>
        </g>
        <g id="star_1176_2" opacity="0.5">
          <path id="Rectangle 831_4" d="M242.868 225.816L243.052 223.474L245.396 223.659L245.212 226L242.868 225.816Z" fill="#4D88FF" fill-opacity="0.6"/>
          <path id="Rectangle 839_3" d="M222.197 380.677L222.405 378.039L225.045 378.246L224.837 380.884L222.197 380.677Z" fill="#4D88FF"/>
          <path id="Rectangle 832_4" d="M133.492 195.57L133.263 198.483L136.178 198.712L136.407 195.799L133.492 195.57Z" fill="#4D88FF"/>
          <path id="Rectangle 833_4" d="M191.958 154.195L192.202 151.096L195.304 151.34L195.06 154.439L191.958 154.195Z" fill="#4D88FF"/>
          <path id="Rectangle 835_3" d="M419.502 275.876L419.746 272.777L422.848 273.021L422.604 276.12L419.502 275.876Z" fill="#4D88FF" fill-opacity="0.5"/>
          <path id="Rectangle 840_2" d="M338.585 313.019L338.719 311.32L340.419 311.454L340.285 313.152L338.585 313.019Z" fill="#4D88FF" fill-opacity="0.5"/>
          <path id="Rectangle 836_4" d="M282.685 418.107L281.091 415.437L283.764 413.845L285.358 416.514L282.685 418.107Z" fill="#4D88FF" fill-opacity="0.5"/>
          <path id="Rectangle 837_4" d="M250.857 346.888L251.027 344.725L253.193 344.895L253.022 347.059L250.857 346.888Z" fill="#4D88FF" fill-opacity="0.6"/>
          <path id="Rectangle 838_3" d="M272.18 364.269L272.639 358.439L278.475 358.897L278.016 364.728L272.18 364.269Z" fill="#4D88FF" fill-opacity="0.5"/>
        </g>
      </g>
    </g>
    <g id="shape-1">
      <path d="M31.7921 31.3872L35.0025 15.2494L19.4917 20.7414L16.2813 36.8793L31.7921 31.3872Z" fill="url(#paint0_linear_1639_12915)"/>
      <path d="M19.4915 20.7445L35.0023 15.2525L47.3203 44.8275L19.4915 20.7445Z" fill="url(#paint1_linear_1639_12915)" fill-opacity="0.6"/>
      <path d="M19.4925 20.7445L16.2636 36.8774L47.3213 44.8275L19.4925 20.7445Z" fill="url(#paint2_linear_1639_12915)"/>
      <defs>
        <linearGradient id="paint0_linear_1639_12915" x1="35.7297" y1="25.337" x2="15.554" y2="26.7916" gradientUnits="userSpaceOnUse">
          <stop stop-color="#6083FF"/>
          <stop offset="1" stop-color="#0C1E5E" stop-opacity="0"/>
        </linearGradient>
        <linearGradient id="paint1_linear_1639_12915" x1="31.0364" y1="13.1208" x2="47.4052" y2="44.7291" gradientUnits="userSpaceOnUse">
          <stop offset="0.170794" stop-color="#3D3BA9"/>
          <stop offset="0.537799" stop-color="#FF7BE2" stop-opacity="0.8"/>
          <stop offset="0.791667" stop-color="white"/>
        </linearGradient>
        <linearGradient id="paint2_linear_1639_12915" x1="47.2106" y1="44.9554" x2="17.5871" y2="35.0722" gradientUnits="userSpaceOnUse">
          <stop stop-color="#3DDCFF"/>
          <stop offset="0.427083" stop-color="#9D50FF" stop-opacity="0.5"/>
          <stop offset="0.977116" stop-color="#3DDCFF"/>
        </linearGradient>
      </defs>
      <animateMotion dur="12s" path="M142.576 582.137C188.184 635.478 261.672 665.157 352.345 658.357C443.032 651.557 533.663 609.552 606.865 547.087C680.067 484.622 735.766 401.76 756.666 313.34C777.564 224.933 759.709 147.781 714.101 94.4399C668.493 41.099 595.005 11.4201 504.332 18.2193C413.645 25.0195 323.014 67.0251 249.812 129.49C176.61 191.955 120.911 274.817 100.011 363.237C79.1135 451.643 96.9683 528.796 142.576 582.137ZM98.953 362.988C57.0277 540.355 170.512 673.081" repeatCount="indefinite" rotate="auto" >
      </animateMotion>
    </g>
    <g id="shape-2">
      <path d="M31.7921 31.3872L35.0025 15.2494L19.4917 20.7414L16.2813 36.8793L31.7921 31.3872Z" fill="url(#paint0_linear_1639_12915)"/>
      <path d="M19.4915 20.7445L35.0023 15.2525L47.3203 44.8275L19.4915 20.7445Z" fill="url(#paint1_linear_1639_12915)" fill-opacity="0.6"/>
      <path d="M19.4925 20.7445L16.2636 36.8774L47.3213 44.8275L19.4925 20.7445Z" fill="url(#paint2_linear_1639_12915)"/>
      <defs>
        <linearGradient id="paint0_linear_1639_12915" x1="35.7297" y1="25.337" x2="15.554" y2="26.7916" gradientUnits="userSpaceOnUse">
          <stop stop-color="#6083FF"/>
          <stop offset="1" stop-color="#0C1E5E" stop-opacity="0"/>
        </linearGradient>
        <linearGradient id="paint1_linear_1639_12915" x1="31.0364" y1="13.1208" x2="47.4052" y2="44.7291" gradientUnits="userSpaceOnUse">
          <stop offset="0.170794" stop-color="#3D3BA9"/>
          <stop offset="0.537799" stop-color="#FF7BE2" stop-opacity="0.8"/>
          <stop offset="0.791667" stop-color="white"/>
        </linearGradient>
        <linearGradient id="paint2_linear_1639_12915" x1="47.2106" y1="44.9554" x2="17.5871" y2="35.0722" gradientUnits="userSpaceOnUse">
          <stop stop-color="#3DDCFF"/>
          <stop offset="0.427083" stop-color="#9D50FF" stop-opacity="0.5"/>
          <stop offset="0.977116" stop-color="#3DDCFF"/>
        </linearGradient>
      </defs>
      <animateMotion dur="13s"  repeatCount="indefinite"  rotate="auto" path="M162.71 605.683C203.809 653.751 272.782 678.227 360.06 667.445C447.348 656.662 536.291 612.657 609.51 550.178C682.729 487.698 740.14 406.815 764.446 322.371C788.751 237.937 775.334 166.054 734.235 117.986C693.136 69.9177 624.163 45.4416 536.885 56.2234C449.597 67.0065 360.654 111.011 287.435 173.491C214.216 235.97 156.805 316.853 132.498 401.297C108.194 485.731 121.611 557.615 162.71 605.683ZM131.453 400.997C82.6982 570.376 185.108 690.151 360.193">
      </animateMotion>
    </g>
  </g>
  <defs>
    <linearGradient id="paint0_linear_670_13674" x1="257.912" y1="138.961" x2="559.325" y2="317.796" gradientUnits="userSpaceOnUse">
      <stop stop-color="#8FBCFF" stop-opacity="0.6"/>
      <stop offset="1" stop-color="#8FBCFF" stop-opacity="0"/>
    </linearGradient>
    <linearGradient id="paint1_linear_670_13674" x1="302.327" y1="190.91" x2="579.213" y2="483.272" gradientUnits="userSpaceOnUse">
      <stop stop-color="#8FBCFF" stop-opacity="0.6"/>
      <stop offset="1" stop-color="#8FBCFF" stop-opacity="0"/>
    </linearGradient>
    <linearGradient id="paint2_linear_670_13674" x1="199.32" y1="70.4352" x2="392.176" y2="180.857" gradientUnits="userSpaceOnUse">
      <stop stop-color="white" stop-opacity="0.6"/>
      <stop offset="0.34375" stop-color="#8FBCFF" stop-opacity="0.6"/>
      <stop offset="1" stop-color="#8FBCFF" stop-opacity="0"/>
    </linearGradient>
    <linearGradient id="paint3_linear_670_13674" x1="470.371" y1="73.6523" x2="498.413" y2="195.233" gradientUnits="userSpaceOnUse">
      <stop stop-color="#FF48D7"/>
      <stop offset="0.234164" stop-color="white" stop-opacity="0.765836"/>
      <stop offset="1" stop-color="#FF48D7" stop-opacity="0"/>
    </linearGradient>
    <linearGradient id="paint4_linear_670_13674" x1="233.53" y1="110.447" x2="381.256" y2="211.131" gradientUnits="userSpaceOnUse">
      <stop stop-color="#8FBCFF" stop-opacity="0.6"/>
      <stop offset="1" stop-color="#8FBCFF" stop-opacity="0"/>
    </linearGradient>
    <linearGradient id="paint5_linear_670_13674" x1="282.329" y1="165.314" x2="310.542" y2="167.35" gradientUnits="userSpaceOnUse">
      <stop stop-color="#6083FF"/>
      <stop offset="1" stop-color="#0C1E5E" stop-opacity="0"/>
    </linearGradient>
    <linearGradient id="paint6_linear_670_13674" x1="288.892" y1="148.248" x2="266.038" y2="192.422" gradientUnits="userSpaceOnUse">
      <stop offset="0.170794" stop-color="#3D3BA9"/>
      <stop offset="0.537799" stop-color="#FF7BE2" stop-opacity="0.8"/>
      <stop offset="0.791667" stop-color="white"/>
    </linearGradient>
    <linearGradient id="paint7_linear_670_13674" x1="266.276" y1="192.72" x2="307.692" y2="178.889" gradientUnits="userSpaceOnUse">
      <stop stop-color="#3DDCFF"/>
      <stop offset="0.427083" stop-color="#9D50FF" stop-opacity="0.5"/>
      <stop offset="0.977116" stop-color="#3DDCFF"/>
    </linearGradient>
    <linearGradient id="paint8_linear_670_13674" x1="361.068" y1="46.2128" x2="387.634" y2="55.9154" gradientUnits="userSpaceOnUse">
      <stop stop-color="#6083FF"/>
      <stop offset="1" stop-color="#0C1E5E" stop-opacity="0"/>
    </linearGradient>
    <linearGradient id="paint9_linear_670_13674" x1="372.066" y1="31.5994" x2="337.966" y2="67.8256" gradientUnits="userSpaceOnUse">
      <stop offset="0.170794" stop-color="#3D3BA9"/>
      <stop offset="0.537799" stop-color="#FF7BE2" stop-opacity="0.8"/>
      <stop offset="0.791667" stop-color="white"/>
    </linearGradient>
    <linearGradient id="paint10_linear_670_13674" x1="338.105" y1="68.1701" x2="381.731" y2="66.2423" gradientUnits="userSpaceOnUse">
      <stop stop-color="#3DDCFF"/>
      <stop offset="0.427083" stop-color="#9D50FF" stop-opacity="0.5"/>
      <stop offset="0.977116" stop-color="#3DDCFF"/>
    </linearGradient>
  </defs>
  <style>
    #shape-1{
    transform:rotate(312deg);
    }
    #shape-2{
    transform: rotate(313deg);
    }
  </style>
</svg>
