<svg width="135" height="40" viewBox="0 0 135 40" fill="none" xmlns="http://www.w3.org/2000/svg">
<path fill-rule="evenodd" clip-rule="evenodd" d="M28.9501 10.3745C28.5921 10.3751 28.2419 10.2693 27.9441 10.0706C27.6463 9.87188 27.4142 9.58915 27.2774 9.2583C27.1405 8.92746 27.105 8.5634 27.1754 8.21236C27.2458 7.86131 27.4189 7.53909 27.6728 7.2866C27.9266 7.0341 28.2498 6.86272 28.6012 6.7942C28.9526 6.72568 29.3164 6.76311 29.6466 6.90174C29.9767 7.04037 30.2581 7.27395 30.4553 7.57284C30.6524 7.87172 30.7563 8.22244 30.7537 8.58047C30.7504 9.05688 30.5589 9.51268 30.2212 9.84867C29.8834 10.1847 29.4266 10.3736 28.9501 10.3745Z" fill="white"/>
<path fill-rule="evenodd" clip-rule="evenodd" d="M34.6468 12.5704C34.877 12.4373 34.9556 12.1428 34.8225 11.9126C34.6894 11.6825 34.3949 11.6038 34.1648 11.7369L20.4613 19.6626L8.70275 12.8697C8.47253 12.7367 8.1781 12.8155 8.04511 13.0457C7.91211 13.2759 7.99093 13.5704 8.22114 13.7034L19.9876 20.5008L20.0507 33.3699C20.052 33.6358 20.2686 33.8502 20.5345 33.8489C20.8004 33.8476 21.0148 33.631 21.0135 33.3652L20.9504 20.4919L34.6468 12.5704Z" fill="white"/>
<path fill-rule="evenodd" clip-rule="evenodd" d="M28.9502 33.3087C28.5927 33.3093 28.243 33.2039 27.9455 33.0057C27.6479 32.8076 27.4158 32.5256 27.2786 32.1955C27.1413 31.8654 27.1051 31.502 27.1745 31.1513C27.2438 30.8006 27.4156 30.4784 27.6682 30.2254C27.9208 29.9723 28.2427 29.7999 28.5933 29.73C28.9439 29.66 29.3073 29.6956 29.6377 29.8322C29.968 29.9689 30.2504 30.2005 30.4491 30.4977C30.6477 30.7949 30.7538 31.1443 30.7538 31.5018C30.7529 31.9802 30.5627 32.4388 30.2248 32.7774C29.8868 33.116 29.4286 33.307 28.9502 33.3087Z" fill="white"/>
<path d="M26.9218 31.6587L21.1451 34.9867C20.9361 35.1085 20.6986 35.1726 20.4567 35.1726C20.2148 35.1726 19.9773 35.1085 19.7683 34.9867L7.68857 28.0065C7.47982 27.8856 7.3065 27.712 7.18596 27.503C7.06543 27.294 7.00192 27.0571 7.00178 26.8158V12.8555C7.00224 12.6143 7.06589 12.3775 7.18639 12.1685C7.30689 11.9596 7.48004 11.786 7.68857 11.6648L19.7779 4.68462C19.9876 4.56472 20.2249 4.50164 20.4663 4.50164C20.7078 4.50164 20.9451 4.56472 21.1547 4.68462L26.9828 8.05116C27.1063 7.59326 27.384 7.19199 27.7691 6.91507L21.8415 3.49398C21.4235 3.25227 20.9492 3.125 20.4663 3.125C19.9835 3.125 19.5092 3.25227 19.0912 3.49398L7.00178 10.4742C6.58324 10.7151 6.2356 11.062 5.99389 11.4801C5.75218 11.8982 5.62494 12.3725 5.625 12.8555V26.8158C5.62503 27.2992 5.75227 27.774 5.99395 28.1925C6.23562 28.6111 6.58321 28.9587 7.00178 29.2003L19.104 36.1805C19.522 36.4223 19.9963 36.5495 20.4792 36.5495C20.962 36.5495 21.4364 36.4223 21.8544 36.1805L27.5027 32.9231C27.1674 32.5824 26.9619 32.135 26.9218 31.6587Z" fill="white"/>
<path d="M44.8973 20C44.8973 18.6267 45.2039 17.4 45.8173 16.32C46.4439 15.2267 47.2906 14.38 48.3573 13.78C49.4373 13.1667 50.6439 12.86 51.9773 12.86C53.5373 12.86 54.9039 13.26 56.0773 14.06C57.2506 14.86 58.0706 15.9667 58.5373 17.38H55.3173C54.9973 16.7133 54.5439 16.2133 53.9573 15.88C53.3839 15.5467 52.7173 15.38 51.9573 15.38C51.1439 15.38 50.4173 15.5733 49.7773 15.96C49.1506 16.3333 48.6573 16.8667 48.2973 17.56C47.9506 18.2533 47.7773 19.0667 47.7773 20C47.7773 20.92 47.9506 21.7333 48.2973 22.44C48.6573 23.1333 49.1506 23.6733 49.7773 24.06C50.4173 24.4333 51.1439 24.62 51.9573 24.62C52.7173 24.62 53.3839 24.4533 53.9573 24.12C54.5439 23.7733 54.9973 23.2667 55.3173 22.6H58.5373C58.0706 24.0267 57.2506 25.14 56.0773 25.94C54.9173 26.7267 53.5506 27.12 51.9773 27.12C50.6439 27.12 49.4373 26.82 48.3573 26.22C47.2906 25.6067 46.4439 24.76 45.8173 23.68C45.2039 22.6 44.8973 21.3733 44.8973 20ZM67.1688 15.76C68.0088 15.76 68.7555 15.9467 69.4088 16.32C70.0622 16.68 70.5688 17.22 70.9288 17.94C71.3022 18.6467 71.4888 19.5 71.4888 20.5V27H68.6888V20.88C68.6888 20 68.4688 19.3267 68.0288 18.86C67.5888 18.38 66.9888 18.14 66.2288 18.14C65.4555 18.14 64.8422 18.38 64.3888 18.86C63.9488 19.3267 63.7288 20 63.7288 20.88V27H60.9288V12.2H63.7288V17.3C64.0888 16.82 64.5688 16.4467 65.1688 16.18C65.7688 15.9 66.4355 15.76 67.1688 15.76ZM73.4315 21.42C73.4315 20.3 73.6515 19.3067 74.0915 18.44C74.5448 17.5733 75.1515 16.9067 75.9115 16.44C76.6848 15.9733 77.5448 15.74 78.4915 15.74C79.3182 15.74 80.0382 15.9067 80.6515 16.24C81.2782 16.5733 81.7782 16.9933 82.1515 17.5V15.92H84.9715V27H82.1515V25.38C81.7915 25.9 81.2915 26.3333 80.6515 26.68C80.0248 27.0133 79.2982 27.18 78.4715 27.18C77.5382 27.18 76.6848 26.94 75.9115 26.46C75.1515 25.98 74.5448 25.3067 74.0915 24.44C73.6515 23.56 73.4315 22.5533 73.4315 21.42ZM82.1515 21.46C82.1515 20.78 82.0182 20.2 81.7515 19.72C81.4848 19.2267 81.1248 18.8533 80.6715 18.6C80.2182 18.3333 79.7315 18.2 79.2115 18.2C78.6915 18.2 78.2115 18.3267 77.7715 18.58C77.3315 18.8333 76.9715 19.2067 76.6915 19.7C76.4248 20.18 76.2915 20.7533 76.2915 21.42C76.2915 22.0867 76.4248 22.6733 76.6915 23.18C76.9715 23.6733 77.3315 24.0533 77.7715 24.32C78.2248 24.5867 78.7048 24.72 79.2115 24.72C79.7315 24.72 80.2182 24.5933 80.6715 24.34C81.1248 24.0733 81.4848 23.7 81.7515 23.22C82.0182 22.7267 82.1515 22.14 82.1515 21.46ZM89.1262 14.6C88.6328 14.6 88.2195 14.4467 87.8862 14.14C87.5662 13.82 87.4062 13.4267 87.4062 12.96C87.4062 12.4933 87.5662 12.1067 87.8862 11.8C88.2195 11.48 88.6328 11.32 89.1262 11.32C89.6195 11.32 90.0262 11.48 90.3462 11.8C90.6795 12.1067 90.8462 12.4933 90.8462 12.96C90.8462 13.4267 90.6795 13.82 90.3462 14.14C90.0262 14.4467 89.6195 14.6 89.1262 14.6ZM90.5062 15.92V27H87.7062V15.92H90.5062ZM99.4126 15.76C100.733 15.76 101.799 16.18 102.613 17.02C103.426 17.8467 103.833 19.0067 103.833 20.5V27H101.033V20.88C101.033 20 100.813 19.3267 100.373 18.86C99.9326 18.38 99.3326 18.14 98.5726 18.14C97.7992 18.14 97.1859 18.38 96.7326 18.86C96.2926 19.3267 96.0726 20 96.0726 20.88V27H93.2726V15.92H96.0726V17.3C96.4459 16.82 96.9192 16.4467 97.4926 16.18C98.0792 15.9 98.7192 15.76 99.4126 15.76ZM107.915 14.6C107.422 14.6 107.009 14.4467 106.675 14.14C106.355 13.82 106.195 13.4267 106.195 12.96C106.195 12.4933 106.355 12.1067 106.675 11.8C107.009 11.48 107.422 11.32 107.915 11.32C108.409 11.32 108.815 11.48 109.135 11.8C109.469 12.1067 109.635 12.4933 109.635 12.96C109.635 13.4267 109.469 13.82 109.135 14.14C108.815 14.4467 108.409 14.6 107.915 14.6ZM109.295 15.92V27H106.495V15.92H109.295ZM115.322 18.22V23.58C115.322 23.9533 115.408 24.2267 115.582 24.4C115.768 24.56 116.075 24.64 116.502 24.64H117.802V27H116.042C113.682 27 112.502 25.8533 112.502 23.56V18.22H111.182V15.92H112.502V13.18H115.322V15.92H117.802V18.22H115.322ZM121.236 14.6C120.742 14.6 120.329 14.4467 119.996 14.14C119.676 13.82 119.516 13.4267 119.516 12.96C119.516 12.4933 119.676 12.1067 119.996 11.8C120.329 11.48 120.742 11.32 121.236 11.32C121.729 11.32 122.136 11.48 122.456 11.8C122.789 12.1067 122.956 12.4933 122.956 12.96C122.956 13.4267 122.789 13.82 122.456 14.14C122.136 14.4467 121.729 14.6 121.236 14.6ZM122.616 15.92V27H119.816V15.92H122.616ZM131.502 27L129.222 23.56L127.202 27H124.202L127.822 21.44L124.162 15.92H127.322L129.582 19.34L131.622 15.92H134.622L130.982 21.44L134.662 27H131.502Z" fill="white"/>
</svg>
