<svg width="567" height="248" viewBox="0 0 567 248" fill="none" xmlns="http://www.w3.org/2000/svg">
<path d="M388.455 187.714L384.259 190.424L386.98 194.625L391.176 191.914L388.455 187.714Z" fill="white" fill-opacity="0.5"/>
<path d="M402.958 160.863L405.069 162.973L402.963 165.077L400.853 162.968L402.958 160.863Z" fill="white" fill-opacity="0.6"/>
<path d="M270.341 13.1572L272.719 15.5338L270.347 17.905L267.969 15.5284L270.341 13.1572Z" fill="white"/>
<path d="M522.144 80.5061L519.519 77.8819L516.9 80.4999L519.525 83.1242L522.144 80.5061Z" fill="white"/>
<path d="M514.028 170.947L516.821 173.74L514.034 176.525L511.241 173.733L514.028 170.947Z" fill="white"/>
<path d="M239.982 181.063L241.513 182.594L239.985 184.121L238.454 182.591L239.982 181.063Z" fill="white" fill-opacity="0.5"/>
<path d="M184.427 40.5117L188.318 41.1803L187.658 45.0676L183.768 44.3991L184.427 40.5117Z" fill="white" fill-opacity="0.5"/>
<path d="M279.415 68.6372L281.365 70.5868L279.419 72.5318L277.469 70.5822L279.415 68.6372Z" fill="white" fill-opacity="0.6"/>
<path d="M245.086 74.8285L250.342 80.0823L245.099 85.3237L239.843 80.0699L245.086 74.8285Z" fill="white" fill-opacity="0.5"/>
<g opacity="0.5">
<path d="M386.234 245.288L389.027 248.081L386.24 250.867L383.447 248.074L386.234 245.288Z" fill="white" fill-opacity="0.5"/>
<path d="M416.903 136.72L418.434 138.251L416.906 139.778L415.375 138.247L416.903 136.72Z" fill="white" fill-opacity="0.5"/>
<path d="M361.348 -3.83142L365.238 -3.16302L364.579 0.724293L360.688 0.055897L361.348 -3.83142Z" fill="white" fill-opacity="0.5"/>
<path d="M456.335 24.2942L458.286 26.2438L456.34 28.1888L454.39 26.2392L456.335 24.2942Z" fill="white" fill-opacity="0.6"/>
<path d="M422.004 30.4824L427.26 35.7362L422.017 40.9776L416.761 35.7238L422.004 30.4824Z" fill="white" fill-opacity="0.5"/>
</g>
</svg>
