<svg width="1120" height="198" viewBox="0 0 1120 198" fill="none" xmlns="http://www.w3.org/2000/svg">
<g clip-path="url(#clip0_1300_13703)">
<path d="M597.247 20.2321L600.416 23.3997L597.255 26.5599L594.086 23.3922L597.247 20.2321Z" fill="#4D88FF" fill-opacity="0.5"/>
<path d="M734.558 137.758L735.864 139.064L734.561 140.367L733.254 139.061L734.558 137.758Z" fill="#4D88FF"/>
<path d="M486.376 32.86L489.545 36.0276L486.383 39.1878L483.215 36.0202L486.376 32.86Z" fill="#4D88FF"/>
<path d="M248.232 93.3174L252.352 97.4353L248.242 101.544L244.123 97.4257L248.232 93.3174Z" fill="#4D88FF" fill-opacity="0.5"/>
<path d="M115.388 140.269L119.786 144.666L115.398 149.052L111 144.656L115.388 140.269Z" fill="#4D88FF" fill-opacity="0.5"/>
<path d="M866.102 73.7142L870.297 76.4245L867.576 80.625L863.381 77.9147L866.102 73.7142Z" fill="#4D88FF" fill-opacity="0.5"/>
<path d="M790.764 174.25L786.299 171.366L783.404 175.835L787.868 178.719L790.764 174.25Z" fill="#4D88FF" fill-opacity="0.5"/>
<path d="M644.964 57.8627L647.074 59.9723L644.969 62.077L642.858 59.9674L644.964 57.8627Z" fill="#4D88FF" fill-opacity="0.6"/>
<path d="M756.033 67.9469L758.827 70.7393L756.04 73.5251L753.246 70.7327L756.033 67.9469Z" fill="#4D88FF"/>
<path d="M451.318 186.632L454.112 189.425L451.325 192.21L448.532 189.418L451.318 186.632Z" fill="#4D88FF" fill-opacity="0.5"/>
<path d="M481.987 78.0632L483.519 79.5939L481.991 81.1211L480.46 79.5904L481.987 78.0632Z" fill="#4D88FF" fill-opacity="0.5"/>
<g opacity="0.5">
<path opacity="0.5" d="M840.889 -2.48096L842.999 -0.371328L840.894 1.73342L838.783 -0.376204L840.889 -2.48096Z" fill="#4D88FF" fill-opacity="0.6"/>
<path opacity="0.5" d="M951.959 7.60339L954.752 10.3958L951.966 13.1816L949.172 10.3892L951.959 7.60339Z" fill="#4D88FF"/>
<path opacity="0.5" d="M647.242 126.289L650.036 129.081L647.249 131.867L644.455 129.074L647.242 126.289Z" fill="#4D88FF" fill-opacity="0.5"/>
<path opacity="0.5" d="M677.912 17.7198L679.444 19.2507L677.916 20.7778L676.384 19.247L677.912 17.7198Z" fill="#4D88FF" fill-opacity="0.5"/>
</g>
<path opacity="0.5" fill-rule="evenodd" clip-rule="evenodd" d="M1019.33 192.842C1048.25 226.79 1094.87 245.678 1152.38 241.351C1209.9 237.023 1267.38 210.29 1313.82 170.536C1360.25 130.782 1395.57 78.0471 1408.83 21.7746C1422.09 -34.489 1410.76 -83.5905 1381.83 -117.538C1352.91 -151.485 1306.29 -170.373 1248.78 -166.046C1191.26 -161.718 1133.77 -134.985 1087.34 -95.2311C1040.91 -55.477 1005.58 -2.7424 992.327 53.5301C979.072 109.794 990.397 158.895 1019.33 192.842ZM991.656 53.3714C965.064 166.251 1037.04 250.721 1152.43 242.04C1267.81 233.358 1382.91 134.813 1409.5 21.9333C1436.09 -90.9467 1364.11 -175.416 1248.73 -166.735C1133.34 -158.054 1018.25 -59.5086 991.656 53.3714Z" fill="url(#paint0_linear_1300_13703)"/>
<path opacity="0.5" fill-rule="evenodd" clip-rule="evenodd" d="M279.845 52.8924C247.84 15.3349 196.271 -5.56216 132.642 -0.774838C69.0037 4.01324 5.40438 33.5895 -45.9642 77.5715C-97.3328 121.553 -136.419 179.896 -151.086 242.154C-165.75 304.401 -153.221 358.724 -121.216 396.282C-89.2112 433.84 -37.6415 454.737 25.987 449.949C89.6256 445.161 153.225 415.585 204.593 371.603C255.962 327.621 295.048 269.278 309.715 207.021C324.379 144.774 311.849 90.45 279.845 52.8924ZM310.457 207.196C339.877 82.3115 260.241 -11.1416 132.585 -1.53693C4.92898 8.06773 -122.407 117.093 -151.828 241.978C-181.249 366.863 -101.613 460.316 26.0441 450.711C153.7 441.107 281.036 332.081 310.457 207.196Z" fill="url(#paint1_linear_1300_13703)"/>
</g>
<defs>
<linearGradient id="paint0_linear_1300_13703" x1="1077.02" y1="-107.351" x2="1213.61" y2="52.1888" gradientUnits="userSpaceOnUse">
<stop stop-color="#8FBCFF" stop-opacity="0.6"/>
<stop offset="1" stop-color="#8FBCFF" stop-opacity="0"/>
</linearGradient>
<linearGradient id="paint1_linear_1300_13703" x1="216.019" y1="385.012" x2="64.8937" y2="208.505" gradientUnits="userSpaceOnUse">
<stop stop-color="#8FBCFF" stop-opacity="0.6"/>
<stop offset="1" stop-color="#8FBCFF" stop-opacity="0"/>
</linearGradient>
<clipPath id="clip0_1300_13703">
<rect width="1120" height="198" fill="white"/>
</clipPath>
</defs>
</svg>
